<svg xmlns="http://www.w3.org/2000/svg" class="svg" width="1008" height="671" style="display: block;">
<defs><style type="text/css"><![CDATA[
:root { overflow: hidden; }
.svg { background-color: rgb(255, 255, 255); }
.node circle { cursor: pointer; stroke: rgb(255, 255, 255); stroke-width: 1.5px; }
.node text { font-size: 10px; font-family: Arial; pointer-events: none; text-anchor: middle; font-weight: normal; font-style: normal; fill: rgb(0, 0, 0); }
line { fill: none; stroke: rgb(128, 128, 128); stroke-width: 0.5px; }]]></style></defs>
    <g><line class="link" x1="440.44812008594016" y1="9.654166104022428" x2="510.79470624321" y2="77.40619442287263"/><line class="link" x1="510.79470624321" y1="77.40619442287263" x2="598.6102077681333" y2="128.71882494702467"/><line class="link" x1="598.6102077681333" y1="128.71882494702467" x2="676.9531060579878" y2="75.45432069939211"/><line class="link" x1="598.6102077681333" y1="128.71882494702467" x2="648.1888903976551" y2="331.2910002369757"/><line class="link" x1="598.6102077681333" y1="128.71882494702467" x2="587.5006788982467" y2="31.241186468963697"/><line class="link" x1="598.6102077681333" y1="128.71882494702467" x2="500.113829627875" y2="181.26999502529105"/><line class="link" x1="598.6102077681333" y1="128.71882494702467" x2="566.9324324241678" y2="39.55442347815537"/><line class="link" x1="598.6102077681333" y1="128.71882494702467" x2="642.6410280328214" y2="10.198385244724735"/><line class="link" x1="598.6102077681333" y1="128.71882494702467" x2="527.1617167588402" y2="65.40179892116872"/><line class="link" x1="598.6102077681333" y1="128.71882494702467" x2="505.2132993902755" y2="105.14721497906467"/><line class="link" x1="598.6102077681333" y1="128.71882494702467" x2="550.4452808370812" y2="12.186312980825642"/><line class="link" x1="598.6102077681333" y1="128.71882494702467" x2="544.0500538184455" y2="50.515229098835846"/><line class="link" x1="648.1888903976551" y1="331.2910002369757" x2="743.1563438479842" y2="322.595850101054"/><line class="link" x1="648.1888903976551" y1="331.2910002369757" x2="676.0885818921125" y2="519.4740822849002"/><line class="link" x1="648.1888903976551" y1="331.2910002369757" x2="564.8996856242957" y2="375.0525842265816"/><line class="link" x1="648.1888903976551" y1="331.2910002369757" x2="729.9739082899791" y2="380.2416552985132"/><line class="link" x1="648.1888903976551" y1="331.2910002369757" x2="551.4257279757328" y2="350.5565926483962"/><line class="link" x1="648.1888903976551" y1="331.2910002369757" x2="675.8629950540329" y2="241.24237891276172"/><line class="link" x1="648.1888903976551" y1="331.2910002369757" x2="645.1944120256346" y2="425.0621707267616"/><line class="link" x1="648.1888903976551" y1="331.2910002369757" x2="582.4463923782554" y2="398.88898336275986"/><line class="link" x1="648.1888903976551" y1="331.2910002369757" x2="601.1827020891701" y2="249.35598261632475"/><line class="link" x1="648.1888903976551" y1="331.2910002369757" x2="600.7989996660036" y2="416.228719646836"/><line class="link" x1="648.1888903976551" y1="331.2910002369757" x2="560.28628210045" y2="298.63918501424"/><line class="link" x1="648.1888903976551" y1="331.2910002369757" x2="709.6480644166282" y2="403.37755269040997"/><line class="link" x1="587.5006788982467" y1="31.241186468963697" x2="508.48120581032896" y2="-26.826431166293784"/><line class="link" x1="500.113829627875" y1="181.26999502529105" x2="401.3589772224859" y2="251.5623053969079"/><line class="link" x1="642.6410280328214" y1="10.198385244724735" x2="737.2931791944801" y2="41.15680551721831"/><line class="link" x1="642.6410280328214" y1="10.198385244724735" x2="561.8121597476686" y2="-70.86286079199459"/><line class="link" x1="642.6410280328214" y1="10.198385244724735" x2="731.3340741891556" y2="-72.68197246713753"/><line class="link" x1="505.2132993902755" y1="105.14721497906467" x2="588.2138396375527" y2="150.2918511393571"/><line class="link" x1="550.4452808370812" y1="12.186312980825642" x2="503.2801137285176" y2="-106.43412463206282"/><line class="link" x1="676.0885818921125" y1="519.4740822849002" x2="600.9842735987148" y2="586.1486014923762"/><line class="link" x1="676.0885818921125" y1="519.4740822849002" x2="575.6727330888673" y2="534.9986304875622"/><line class="link" x1="676.0885818921125" y1="519.4740822849002" x2="721.6248168558589" y2="701.8794497618835"/><line class="link" x1="676.0885818921125" y1="519.4740822849002" x2="753.3035618094049" y2="382.679776962153"/><line class="link" x1="676.0885818921125" y1="519.4740822849002" x2="587.6937474519526" y2="554.8958378046096"/><line class="link" x1="676.0885818921125" y1="519.4740822849002" x2="570.2525779768986" y2="588.8343416792302"/><line class="link" x1="729.9739082899791" y1="380.2416552985132" x2="669.8435828708874" y2="453.14027941052285"/><line class="link" x1="551.4257279757328" y1="350.5565926483962" x2="464.17677742685646" y2="390.135910467463"/><line class="link" x1="551.4257279757328" y1="350.5565926483962" x2="487.34824500106953" y2="423.0338709942195"/><line class="link" x1="600.7989996660036" y1="416.228719646836" x2="521.7363935067017" y2="472.1641893102335"/><line class="link" x1="401.3589772224859" y1="251.5623053969079" x2="240.94229199561093" y2="258.872036744459"/><line class="link" x1="401.3589772224859" y1="251.5623053969079" x2="542.8793854245775" y2="243.06925509391115"/><line class="link" x1="401.3589772224859" y1="251.5623053969079" x2="390.05424394663385" y2="355.767583736438"/><line class="link" x1="737.2931791944801" y1="41.15680551721831" x2="816.7715354969199" y2="95.2450331332154"/><line class="link" x1="561.8121597476686" y1="-70.86286079199459" x2="474.83539043279296" y2="-138.4558968411942"/><line class="link" x1="731.3340741891556" y1="-72.68197246713753" x2="816.1772417106993" y2="-147.64656921099598"/><line class="link" x1="503.2801137285176" y1="-106.43412463206282" x2="512.6428216141278" y2="-207.04622061097996"/><line class="link" x1="503.2801137285176" y1="-106.43412463206282" x2="442.4588116594953" y2="-188.09337786923243"/><line class="link" x1="503.2801137285176" y1="-106.43412463206282" x2="475.458891036217" y2="-204.8163039831698"/><line class="link" x1="600.9842735987148" y1="586.1486014923762" x2="537.1622907059868" y2="659.9374393451063"/><line class="link" x1="575.6727330888673" y1="534.9986304875622" x2="487.72087554358274" y2="577.6579810922843"/><line class="link" x1="721.6248168558589" y1="701.8794497618835" x2="680.0170045806611" y2="789.4223324718366"/><line class="link" x1="721.6248168558589" y1="701.8794497618835" x2="779.7823575173726" y2="625.1383059701154"/><line class="link" x1="721.6248168558589" y1="701.8794497618835" x2="777.7790500010535" y2="780.4912893246745"/><line class="link" x1="721.6248168558589" y1="701.8794497618835" x2="646.9568833736175" y2="762.0578912455595"/><line class="link" x1="721.6248168558589" y1="701.8794497618835" x2="763.1005627913419" y2="615.3779769390187"/><line class="link" x1="721.6248168558589" y1="701.8794497618835" x2="752.476748799534" y2="794.2560551957463"/><line class="link" x1="721.6248168558589" y1="701.8794497618835" x2="627.4855622908268" y2="683.6126493533988"/><line class="link" x1="721.6248168558589" y1="701.8794497618835" x2="817.904394108855" y2="710.7248526012091"/><line class="link" x1="721.6248168558589" y1="701.8794497618835" x2="695.1083795172522" y2="795.2068262138635"/><line class="link" x1="721.6248168558589" y1="701.8794497618835" x2="804.0674833133293" y2="652.9176453460037"/><line class="link" x1="721.6248168558589" y1="701.8794497618835" x2="803.4497626943769" y2="754.3316591336552"/><line class="link" x1="721.6248168558589" y1="701.8794497618835" x2="632.6876128881885" y2="738.912438905294"/><line class="link" x1="721.6248168558589" y1="701.8794497618835" x2="793.1142296937163" y2="637.2240611011964"/><line class="link" x1="721.6248168558589" y1="701.8794497618835" x2="724.515478491303" y2="799.1372480272255"/><line class="link" x1="721.6248168558589" y1="701.8794497618835" x2="641.2810257126634" y2="651.5838024212393"/><line class="link" x1="721.6248168558589" y1="701.8794497618835" x2="810.5496322789829" y2="741.0533604041367"/><line class="link" x1="721.6248168558589" y1="701.8794497618835" x2="666.1059242527997" y2="780.6082594095434"/><line class="link" x1="721.6248168558589" y1="701.8794497618835" x2="741.9239010326098" y2="608.553542834488"/><line class="link" x1="721.6248168558589" y1="701.8794497618835" x2="793.3928533671028" y2="766.3747764613754"/><line class="link" x1="721.6248168558589" y1="701.8794497618835" x2="625.1612402118565" y2="704.9864365384333"/><line class="link" x1="721.6248168558589" y1="701.8794497618835" x2="813.7605873702396" y2="674.3929257922043"/><line class="link" x1="721.6248168558589" y1="701.8794497618835" x2="710.0943236993999" y2="798.3807930826558"/><line class="link" x1="721.6248168558589" y1="701.8794497618835" x2="712.372909207995" y2="607.4889397688905"/><line class="link" x1="721.6248168558589" y1="701.8794497618835" x2="815.4302208545623" y2="726.8746203640062"/><line class="link" x1="721.6248168558589" y1="701.8794497618835" x2="660.6486771479904" y2="846.3507761507723"/><line class="link" x1="721.6248168558589" y1="701.8794497618835" x2="825.0137889470695" y2="654.0899581928211"/><line class="link" x1="721.6248168558589" y1="701.8794497618835" x2="739.1416806052871" y2="797.7087352187731"/><line class="link" x1="721.6248168558589" y1="701.8794497618835" x2="648.3162275405521" y2="779.934616011462"/><line class="link" x1="721.6248168558589" y1="701.8794497618835" x2="817.6805750596523" y2="692.490168838931"/><line class="link" x1="721.6248168558589" y1="701.8794497618835" x2="629.0704142841821" y2="756.4420233503236"/><line class="link" x1="721.6248168558589" y1="701.8794497618835" x2="851.1203132037814" y2="705.7421378957911"/><line class="link" x1="721.6248168558589" y1="701.8794497618835" x2="765.6159333741047" y2="788.6712922292246"/><line class="link" x1="721.6248168558589" y1="701.8794497618835" x2="627.1105271002396" y2="722.8104587328658"/><line class="link" x1="721.6248168558589" y1="701.8794497618835" x2="656.6350663301141" y2="609.5496156125423"/><line class="link" x1="721.6248168558589" y1="701.8794497618835" x2="796.266304634551" y2="784.4801816745552"/><line class="link" x1="753.3035618094049" y1="382.679776962153" x2="738.3020676579624" y2="286.7893806177565"/><line class="link" x1="753.3035618094049" y1="382.679776962153" x2="800.569296029934" y2="467.3216945354046"/><line class="link" x1="753.3035618094049" y1="382.679776962153" x2="747.0982425393165" y2="249.50905590669888"/><line class="link" x1="753.3035618094049" y1="382.679776962153" x2="832.7932803445774" y2="325.00591289559543"/><line class="link" x1="753.3035618094049" y1="382.679776962153" x2="849.9108060624407" y2="395.99588190300227"/><line class="link" x1="570.2525779768986" y1="588.8343416792302" x2="480.0578082259322" y2="627.1712927133494"/><line class="link" x1="570.2525779768986" y1="588.8343416792302" x2="508.15512317938874" y2="665.3980956534153"/><line class="link" x1="570.2525779768986" y1="588.8343416792302" x2="491.8319088972344" y2="648.2020494182462"/><line class="link" x1="240.94229199561093" y1="258.872036744459" x2="96.1545192648938" y2="269.810398398408"/><line class="link" x1="542.8793854245775" y1="243.06925509391115" x2="698.7225745649545" y2="241.17875159953567"/><line class="link" x1="390.05424394663385" y1="355.767583736438" x2="376.23535589482736" y2="460.1501831608525"/><line class="link" x1="474.83539043279296" y1="-138.4558968411942" x2="390.85061228676835" y2="-197.62706759906027"/><line class="link" x1="816.1772417106993" y1="-147.64656921099598" x2="894.4563911824112" y2="-85.41904063825316"/><line class="link" x1="816.1772417106993" y1="-147.64656921099598" x2="737.7086838984471" y2="-208.06991046626345"/><line class="link" x1="816.1772417106993" y1="-147.64656921099598" x2="904.5160787262391" y2="-191.75605545267234"/><line class="link" x1="816.1772417106993" y1="-147.64656921099598" x2="857.0055898182644" y2="-58.864783598824566"/><line class="link" x1="816.1772417106993" y1="-147.64656921099598" x2="776.8416318673991" y2="-238.08211202069833"/><line class="link" x1="816.1772417106993" y1="-147.64656921099598" x2="913.8787610420324" y2="-124.35902250395934"/><line class="link" x1="816.1772417106993" y1="-147.64656921099598" x2="824.7054631638393" y2="-51.08316044514855"/><line class="link" x1="816.1772417106993" y1="-147.64656921099598" x2="885.131940802451" y2="-213.20457845024484"/><line class="link" x1="816.1772417106993" y1="-147.64656921099598" x2="901.6237020828561" y2="-106.09834555703408"/><line class="link" x1="816.1772417106993" y1="-147.64656921099598" x2="807.0236055824721" y2="-245.1320195390561"/><line class="link" x1="816.1772417106993" y1="-147.64656921099598" x2="915.2428476794254" y2="-143.15544911843378"/><line class="link" x1="816.1772417106993" y1="-147.64656921099598" x2="723.8770718924549" y2="-181.51337324081172"/><line class="link" x1="816.1772417106993" y1="-147.64656921099598" x2="842.0793506518172" y2="-241.53942624937275"/><line class="link" x1="816.1772417106993" y1="-147.64656921099598" x2="875.7323685861824" y2="-68.37068727405412"/><line class="link" x1="816.1772417106993" y1="-147.64656921099598" x2="757.4536141663343" y2="-226.70159090403092"/><line class="link" x1="816.1772417106993" y1="-147.64656921099598" x2="913.1962018810794" y2="-168.32093548478034"/><line class="link" x1="816.1772417106993" y1="-147.64656921099598" x2="780.1424797181819" y2="-59.94007989496803"/><line class="link" x1="816.1772417106993" y1="-147.64656921099598" x2="864.3243472933265" y2="-232.1906914148712"/><line class="link" x1="512.6428216141278" y1="-207.04622061097996" x2="549.0386801438418" y2="-295.58324005373504"/><line class="link" x1="442.4588116594953" y1="-188.09337786923243" x2="400.9782557155393" y2="-275.10731061583084"/><line class="link" x1="475.458891036217" y1="-204.8163039831698" x2="459.4689810926539" y2="-299.8048876526924"/><line class="link" x1="660.6486771479904" y1="846.3507761507723" x2="683.828742621773" y2="940.1985971422358"/><line class="link" x1="660.6486771479904" y1="846.3507761507723" x2="615.7988945501115" y2="931.4739886527202"/><line class="link" x1="660.6486771479904" y1="846.3507761507723" x2="714.1796958825158" y2="926.9730455921938"/><line class="link" x1="660.6486771479904" y1="846.3507761507723" x2="651.5219967919957" y2="942.4313507647406"/><line class="link" x1="660.6486771479904" y1="846.3507761507723" x2="581.4951788944181" y2="902.0576154349474"/><line class="link" x1="660.6486771479904" y1="846.3507761507723" x2="580.5657757734638" y2="949.8196136104197"/><line class="link" x1="825.0137889470695" y1="654.0899581928211" x2="905.1891788416996" y2="598.8058705134434"/><line class="link" x1="825.0137889470695" y1="654.0899581928211" x2="920.0880163540443" y2="633.0726038232871"/><line class="link" x1="648.3162275405521" y1="779.934616011462" x2="571.801906133551" y2="842.4190272113825"/><line class="link" x1="629.0704142841821" y1="756.4420233503236" x2="541.986460336854" y2="803.9414185541061"/><line class="link" x1="851.1203132037814" y1="705.7421378957911" x2="969.673091930894" y2="685.9661060768718"/><line class="link" x1="851.1203132037814" y1="705.7421378957911" x2="945.7943285040157" y2="745.1999951566642"/><line class="link" x1="656.6350663301141" y1="609.5496156125423" x2="582.7583621945315" y2="503.43372714891103"/><line class="link" x1="796.266304634551" y1="784.4801816745552" x2="868.4836047293433" y2="860.3667153589013"/><line class="link" x1="738.3020676579624" y1="286.7893806177565" x2="672.8064725414088" y2="215.92671160895912"/><line class="link" x1="800.569296029934" y1="467.3216945354046" x2="727.8786351300455" y2="530.2900395507854"/><line class="link" x1="800.569296029934" y1="467.3216945354046" x2="707.32798741142" y2="479.0161293995397"/><line class="link" x1="747.0982425393165" y1="249.50905590669888" x2="709.9553340407383" y2="121.50818594794262"/><line class="link" x1="747.0982425393165" y1="249.50905590669888" x2="842.1826547855306" y2="273.18610115049034"/><line class="link" x1="832.7932803445774" y1="325.00591289559543" x2="870.783360066663" y2="236.0263687446357"/><line class="link" x1="849.9108060624407" y1="395.99588190300227" x2="943.8662433507873" y2="388.4220383530986"/><line class="link" x1="96.1545192648938" y1="269.810398398408" x2="18.916966762373562" y2="324.2190821073667"/><line class="link" x1="96.1545192648938" y1="269.810398398408" x2="79.0812010384143" y2="154.39280617322697"/><line class="link" x1="96.1545192648938" y1="269.810398398408" x2="146.09906627981343" y2="184.44981856664526"/><line class="link" x1="96.1545192648938" y1="269.810398398408" x2="58.66810682786094" y2="484.4218615078325"/><line class="link" x1="96.1545192648938" y1="269.810398398408" x2="126.25914471813539" y2="156.2990996324119"/><line class="link" x1="96.1545192648938" y1="269.810398398408" x2="127.49314848056017" y2="361.69002792600605"/><line class="link" x1="96.1545192648938" y1="269.810398398408" x2="-47.99833881755796" y2="159.27141363118722"/><line class="link" x1="96.1545192648938" y1="269.810398398408" x2="175.84744485949494" y2="176.9270353874424"/><line class="link" x1="96.1545192648938" y1="269.810398398408" x2="-5.159522050219473" y2="297.4193095930146"/><line class="link" x1="96.1545192648938" y1="269.810398398408" x2="49.314250698005196" y2="181.66608432645913"/><line class="link" x1="96.1545192648938" y1="269.810398398408" x2="202.66404060616972" y2="297.4589692195968"/><line class="link" x1="96.1545192648938" y1="269.810398398408" x2="-4.631675493780465" y2="272.52483900864553"/><line class="link" x1="96.1545192648938" y1="269.810398398408" x2="99.52473641711192" y2="173.48065499724729"/><line class="link" x1="96.1545192648938" y1="269.810398398408" x2="181.8968772578792" y2="222.60267454563908"/><line class="link" x1="96.1545192648938" y1="269.810398398408" x2="5.880340211075507" y2="230.25275853844974"/><line class="link" x1="698.7225745649545" y1="241.17875159953567" x2="848.286250037029" y2="246.09215793193732"/><line class="link" x1="376.23535589482736" y1="460.1501831608525" x2="358.75385562550247" y2="556.0512238350107"/><line class="link" x1="390.85061228676835" y1="-197.62706759906027" x2="321.27619333490645" y2="-262.9649536124168"/><line class="link" x1="894.4563911824112" y1="-85.41904063825316" x2="979.2228902994996" y2="-37.22776078317803"/><line class="link" x1="737.7086838984471" y1="-208.06991046626345" x2="674.3647351704993" y2="-281.3115309469513"/><line class="link" x1="904.5160787262391" y1="-191.75605545267234" x2="999.9779328744933" y2="-203.45297345324437"/><line class="link" x1="857.0055898182644" y1="-58.864783598824566" x2="940.8429079670669" y2="-10.5419989531843"/><line class="link" x1="776.8416318673991" y1="-238.08211202069833" x2="712.0827492967124" y2="-309.77859382073547"/><line class="link" x1="913.8787610420324" y1="-124.35902250395934" x2="1010.3153418971445" y2="-109.06025925052552"/><line class="link" x1="824.7054631638393" y1="-51.08316044514855" x2="877.3219932549773" y2="29.60733423235567"/><line class="link" x1="807.0236055824721" y1="-245.1320195390561" x2="796.8036349830627" y2="-340.22139536899357"/><line class="link" x1="915.2428476794254" y1="-143.15544911843378" x2="995.2038385882119" y2="-87.84565106333231"/><line class="link" x1="723.8770718924549" y1="-181.51337324081172" x2="649.26640989391" y2="-242.8738032938021"/><line class="link" x1="842.0793506518172" y1="-241.53942624937275" x2="929.2764301022817" y2="-281.2562782937754"/><line class="link" x1="875.7323685861824" y1="-68.37068727405412" x2="927.5386432173694" y2="14.000505002984314"/><line class="link" x1="757.4536141663343" y1="-226.70159090403092" x2="739.5808432448218" y2="-321.4168191200347"/><line class="link" x1="913.1962018810794" y1="-168.32093548478034" x2="1009.1851114325326" y2="-155.97637467009275"/><line class="link" x1="780.1424797181819" y1="-59.94007989496803" x2="820.7955979316581" y2="26.092479614917288"/><line class="link" x1="864.3243472933265" y1="-232.1906914148712" x2="887.5785662121883" y2="-324.4024849181251"/><line class="link" x1="580.5657757734638" y1="949.8196136104197" x2="527.9587006936196" y2="1029.629345641082"/><line class="link" x1="580.5657757734638" y1="949.8196136104197" x2="486.25589606206955" y2="968.897450143504"/><line class="link" x1="580.5657757734638" y1="949.8196136104197" x2="572.6513387315553" y2="1044.7731761757896"/><line class="link" x1="580.5657757734638" y1="949.8196136104197" x2="500.2475284027958" y2="1002.3747495771661"/><line class="link" x1="580.5657757734638" y1="949.8196136104197" x2="623.3733130956356" y2="1035.0270741430986"/><line class="link" x1="969.673091930894" y1="685.9661060768718" x2="1061.59976246519" y2="715.6799564264355"/><line class="link" x1="969.673091930894" y1="685.9661060768718" x2="1050.8654404406325" y2="627.7347552318951"/><line class="link" x1="969.673091930894" y1="685.9661060768718" x2="1065.9758733317376" y2="667.6201647749891"/><line class="link" x1="945.7943285040157" y1="745.1999951566642" x2="1029.4207402016605" y2="791.0328944172558"/><line class="link" x1="582.7583621945315" y1="503.43372714891103" x2="518.4557318417635" y2="402.2631676236548"/><line class="link" x1="868.4836047293433" y1="860.3667153589013" x2="945.2103201630149" y2="916.4293400762659"/><line class="link" x1="727.8786351300455" y1="530.2900395507854" x2="645.0331734574768" y2="579.2318035713815"/><line class="link" x1="709.9553340407383" y1="121.50818594794262" x2="672.178746775494" y2="4.181032586568852"/><line class="link" x1="842.1826547855306" y1="273.18610115049034" x2="929.3965933942902" y2="315.858782384888"/><line class="link" x1="79.0812010384143" y1="154.39280617322697" x2="78.05163441504561" y2="55.14935590868464"/><line class="link" x1="79.0812010384143" y1="154.39280617322697" x2="96.72616321071348" y2="56.822984301423695"/><line class="link" x1="79.0812010384143" y1="154.39280617322697" x2="57.33734446313673" y2="57.43171533126258"/><line class="link" x1="146.09906627981343" y1="184.44981856664526" x2="174.1329294909668" y2="92.09137586943854"/><line class="link" x1="146.09906627981343" y1="184.44981856664526" x2="208.25762178068643" y2="111.57874644255543"/><line class="link" x1="58.66810682786094" y1="484.4218615078325" x2="20.88448888304948" y2="574.9241727460219"/><line class="link" x1="58.66810682786094" y1="484.4218615078325" x2="-31.20046043455854" y2="447.78251003768975"/><line class="link" x1="58.66810682786094" y1="484.4218615078325" x2="135.45132979357112" y2="546.3788742500665"/><line class="link" x1="58.66810682786094" y1="484.4218615078325" x2="-33.20517467354535" y2="520.1936868314215"/><line class="link" x1="58.66810682786094" y1="484.4218615078325" x2="152.69580424446633" y2="466.4404991851939"/><line class="link" x1="58.66810682786094" y1="484.4218615078325" x2="54.88871153231185" y2="582.4324939960379"/><line class="link" x1="58.66810682786094" y1="484.4218615078325" x2="-22.909760899921327" y2="432.9004807411206"/><line class="link" x1="58.66810682786094" y1="484.4218615078325" x2="121.21249994519299" y2="560.810448676073"/><line class="link" x1="58.66810682786094" y1="484.4218615078325" x2="-28.873279021622714" y2="529.9958142899657"/><line class="link" x1="58.66810682786094" y1="484.4218615078325" x2="141.39164993963152" y2="438.21270754927895"/><line class="link" x1="58.66810682786094" y1="484.4218615078325" x2="45.620643642606126" y2="585.2046038571325"/><line class="link" x1="58.66810682786094" y1="484.4218615078325" x2="-38.54728531122709" y2="498.06686226955196"/><line class="link" x1="58.66810682786094" y1="484.4218615078325" x2="114.43695105397103" y2="567.7199386474554"/><line class="link" x1="58.66810682786094" y1="484.4218615078325" x2="4.564941105153059" y2="566.6998368539475"/><line class="link" x1="58.66810682786094" y1="484.4218615078325" x2="-9.800463391300353" y2="417.3516679951267"/><line class="link" x1="58.66810682786094" y1="484.4218615078325" x2="105.31086008633116" y2="571.0080556941805"/><line class="link" x1="58.66810682786094" y1="484.4218615078325" x2="-36.53789677198982" y2="509.3847416205233"/><line class="link" x1="58.66810682786094" y1="484.4218615078325" x2="154.25538054167376" y2="501.7622755281615"/><line class="link" x1="58.66810682786094" y1="484.4218615078325" x2="37.44844021832778" y2="580.1291153529903"/><line class="link" x1="58.66810682786094" y1="484.4218615078325" x2="-23.779371456091603" y2="539.0750478709172"/><line class="link" x1="58.66810682786094" y1="484.4218615078325" x2="98.44004613591453" y2="577.5103015450376"/><line class="link" x1="58.66810682786094" y1="484.4218615078325" x2="-17.885017116698545" y2="547.4622300972272"/><line class="link" x1="58.66810682786094" y1="484.4218615078325" x2="155.1891845637626" y2="485.83937510280197"/><line class="link" x1="58.66810682786094" y1="484.4218615078325" x2="71.75109834159193" y2="581.4838213661593"/><line class="link" x1="58.66810682786094" y1="484.4218615078325" x2="-38.3660360333779" y2="473.7322172859764"/><line class="link" x1="58.66810682786094" y1="484.4218615078325" x2="146.97689637598765" y2="527.1696626778571"/><line class="link" x1="58.66810682786094" y1="484.4218615078325" x2="11.444805870346853" y2="573.3273281493942"/><line class="link" x1="58.66810682786094" y1="484.4218615078325" x2="10.78039214554622" y2="402.1666504117627"/><line class="link" x1="58.66810682786094" y1="484.4218615078325" x2="81.27956385762168" y2="583.4709293511849"/><line class="link" x1="58.66810682786094" y1="484.4218615078325" x2="-10.899704812735196" y2="554.8465712136389"/><line class="link" x1="58.66810682786094" y1="484.4218615078325" x2="151.37109198335065" y2="515.2511177865729"/><line class="link" x1="58.66810682786094" y1="484.4218615078325" x2="88.95559994531874" y2="577.7777740896466"/><line class="link" x1="58.66810682786094" y1="484.4218615078325" x2="-35.849722940147444" y2="460.9305858989173"/><line class="link" x1="58.66810682786094" y1="484.4218615078325" x2="128.94455009164395" y2="554.5388105013316"/><line class="link" x1="58.66810682786094" y1="484.4218615078325" x2="-4.046604630956722" y2="562.1704600613604"/><line class="link" x1="58.66810682786094" y1="484.4218615078325" x2="52.298256063115176" y2="390.1033430836271"/><line class="link" x1="58.66810682786094" y1="484.4218615078325" x2="63.58048906089351" y2="586.2286183542581"/><line class="link" x1="58.66810682786094" y1="484.4218615078325" x2="-39.28401167940313" y2="485.6841793190674"/><line class="link" x1="58.66810682786094" y1="484.4218615078325" x2="141.72870624467188" y2="537.46695619074"/><line class="link" x1="58.66810682786094" y1="484.4218615078325" x2="28.064431453788426" y2="581.1255851198439"/><line class="link" x1="126.25914471813539" y1="156.2990996324119" x2="150.17288889948213" y2="59.81576550723035"/><line class="link" x1="126.25914471813539" y1="156.2990996324119" x2="168.1296786140385" y2="66.20309928320694"/><line class="link" x1="126.25914471813539" y1="156.2990996324119" x2="131.63766184685232" y2="56.89696521282048"/><line class="link" x1="127.49314848056017" y1="361.69002792600605" x2="220.88322782310928" y2="355.47539936813604"/><line class="link" x1="127.49314848056017" y1="361.69002792600605" x2="192.94187330954452" y2="432.0522616931657"/><line class="link" x1="127.49314848056017" y1="361.69002792600605" x2="151.75252118836752" y2="271.0392119128793"/><line class="link" x1="127.49314848056017" y1="361.69002792600605" x2="208.7182551146124" y2="412.22706560823275"/><line class="link" x1="-47.99833881755796" y1="159.27141363118722" x2="-135.77408291583143" y2="117.70948466454338"/><line class="link" x1="-47.99833881755796" y1="159.27141363118722" x2="-80.66274427452386" y2="67.1620509839658"/><line class="link" x1="-47.99833881755796" y1="159.27141363118722" x2="-141.05309199146916" y2="185.83600839791862"/><line class="link" x1="-47.99833881755796" y1="159.27141363118722" x2="-106.24826164209236" y2="81.11851272749274"/><line class="link" x1="-47.99833881755796" y1="159.27141363118722" x2="-23.52407352094809" y2="64.86879922633601"/><line class="link" x1="-47.99833881755796" y1="159.27141363118722" x2="-141.48388067193653" y2="133.41332904724274"/><line class="link" x1="-47.99833881755796" y1="159.27141363118722" x2="-67.02906622672785" y2="63.328849039450766"/><line class="link" x1="-47.99833881755796" y1="159.27141363118722" x2="-121.67817032480781" y2="221.23407907344617"/><line class="link" x1="-47.99833881755796" y1="159.27141363118722" x2="-127.66322709473674" y2="103.5435067349274"/><line class="link" x1="-47.99833881755796" y1="159.27141363118722" x2="-38.81786522032225" y2="61.938252599602606"/><line class="link" x1="-47.99833881755796" y1="159.27141363118722" x2="-144.4974700935807" y2="167.86868259392864"/><line class="link" x1="-47.99833881755796" y1="159.27141363118722" x2="-93.44612050828555" y2="72.82073253078369"/><line class="link" x1="-47.99833881755796" y1="159.27141363118722" x2="-6.577166989414529" y2="71.69271863081016"/><line class="link" x1="-47.99833881755796" y1="159.27141363118722" x2="-144.53136191689" y2="150.2946124873672"/><line class="link" x1="-47.99833881755796" y1="159.27141363118722" x2="-53.76279386896288" y2="61.59269775506226"/><line class="link" x1="-47.99833881755796" y1="159.27141363118722" x2="-133.8582907059661" y2="203.51817882503684"/><line class="link" x1="-47.99833881755796" y1="159.27141363118722" x2="-117.73313673864008" y2="91.3503368828624"/><line class="link" x1="175.84744485949494" y1="176.9270353874424" x2="224.44468585619737" y2="90.86141079328279"/><line class="link" x1="175.84744485949494" y1="176.9270353874424" x2="241.9519573246427" y2="104.43381917971324"/><line class="link" x1="175.84744485949494" y1="176.9270353874424" x2="203.8769610094513" y2="82.08395354764842"/><line class="link" x1="175.84744485949494" y1="176.9270353874424" x2="257.3129611670632" y2="123.5118737559215"/><line class="link" x1="-5.159522050219473" y1="297.4193095930146" x2="-95.76693631087275" y2="336.6383946889985"/><line class="link" x1="-5.159522050219473" y1="297.4193095930146" x2="-102.38530822580569" y2="288.6016656378405"/><line class="link" x1="49.314250698005196" y1="181.66608432645913" x2="30.067779603763412" y2="86.84867646572783"/><line class="link" x1="49.314250698005196" y1="181.66608432645913" x2="58.77325444891456" y2="85.82986940748128"/><line class="link" x1="202.66404060616972" y1="297.4589692195968" x2="294.76736850358174" y2="272.0981322563253"/><line class="link" x1="202.66404060616972" y1="297.4589692195968" x2="276.96217065138785" y2="358.5491899833294"/><line class="link" x1="202.66404060616972" y1="297.4589692195968" x2="274.5121529372575" y2="233.83361455240268"/><line class="link" x1="202.66404060616972" y1="297.4589692195968" x2="297.2649838423924" y2="310.6376966804751"/><line class="link" x1="202.66404060616972" y1="297.4589692195968" x2="238.53614676125568" y2="386.64569730969316"/><line class="link" x1="202.66404060616972" y1="297.4589692195968" x2="289.71504755098937" y2="337.62275359878635"/><line class="link" x1="202.66404060616972" y1="297.4589692195968" x2="260.4455620496556" y2="374.6236270416283"/><line class="link" x1="-4.631675493780465" y1="272.52483900864553" x2="-95.50706688577436" y2="306.616514433978"/><line class="link" x1="-4.631675493780465" y1="272.52483900864553" x2="-75.7608830187329" y2="337.0939358321854"/><line class="link" x1="99.52473641711192" y1="173.48065499724729" x2="115.72127073648274" y2="77.992352587853"/><line class="link" x1="181.8968772578792" y1="222.60267454563908" x2="260.3563288181442" y2="165.97580883534286"/><line class="link" x1="5.880340211075507" y1="230.25275853844974" x2="-88.42287692196051" y2="247.68402824199748"/><line class="link" x1="5.880340211075507" y1="230.25275853844974" x2="-11.585877706703888" y2="137.02680759731692"/><line class="link" x1="848.286250037029" y1="246.09215793193732" x2="974.1703961197182" y2="256.23355592319353"/><line class="link" x1="1061.59976246519" y1="715.6799564264355" x2="1147.5645945128783" y2="753.4034565703664"/><line class="link" x1="1050.8654404406325" y1="627.7347552318951" x2="1133.6001643126922" y2="576.3843246867315"/><line class="link" x1="1065.9758733317376" y1="667.6201647749891" x2="1156.2713179717368" y2="638.4203163797177"/><line class="link" x1="518.4557318417635" y1="402.2631676236548" x2="457.0375134606451" y2="311.8931237878241"/><line class="link" x1="518.4557318417635" y1="402.2631676236548" x2="496.55164594315886" y2="298.1622523859553"/><line class="link" x1="672.178746775494" y1="4.181032586568852" x2="649.6126880514835" y2="-90.36629895006057"/><line class="link" x1="672.178746775494" y1="4.181032586568852" x2="595.6635586442213" y2="-55.535985213051255"/><line class="link" x1="672.178746775494" y1="4.181032586568852" x2="630.0061143116818" y2="-83.78869747362924"/><line class="link" x1="672.178746775494" y1="4.181032586568852" x2="583.3417308352821" y2="-34.0446463718344"/><line class="link" x1="672.178746775494" y1="4.181032586568852" x2="612.7034034446482" y2="-73.14756574077872"/><line class="link" x1="672.178746775494" y1="4.181032586568852" x2="674.2245259687312" y2="-92.32306950346948"/><line class="link" x1="929.3965933942902" y1="315.858782384888" x2="972.1165669498456" y2="401.60043024525174"/><line class="link" x1="974.1703961197182" y1="256.23355592319353" x2="1077.0453261454566" y2="283.6021331186119"/><line class="link" x1="974.1703961197182" y1="256.23355592319353" x2="1009.5613570569863" y2="347.92018977341803"/><line class="link" x1="974.1703961197182" y1="256.23355592319353" x2="1062.8248766757624" y2="215.894751376126"/><line class="link" x1="974.1703961197182" y1="256.23355592319353" x2="1055.311833319215" y2="311.5397749405749"/><line class="link" x1="974.1703961197182" y1="256.23355592319353" x2="1042.3914666661244" y2="187.38887412654861"/><line class="link" x1="974.1703961197182" y1="256.23355592319353" x2="1071.3294889254068" y2="248.06243838808555"/><line class="link" x1="974.1703961197182" y1="256.23355592319353" x2="1036.576692423022" y2="332.6817770752967"/><line class="link" x1="974.1703961197182" y1="256.23355592319353" x2="1009.3855258885293" y2="164.55888141516022"/><line class="link" x1="1133.6001643126922" y1="576.3843246867315" x2="1186.5368802178036" y2="498.2807763483409"/><line class="link" x1="457.0375134606451" y1="311.8931237878241" x2="418.3367469092242" y2="223.05343529174186"/><line class="link" x1="457.0375134606451" y1="311.8931237878241" x2="439.6585643010713" y2="216.99597631350494"/><line class="link" x1="457.0375134606451" y1="311.8931237878241" x2="396.49460779384293" y2="235.68873203142238"/><line class="link" x1="496.55164594315886" y1="298.1622523859553" x2="465.4115984415893" y2="206.35733066466983"/><line class="link" x1="496.55164594315886" y1="298.1622523859553" x2="489.385905346328" y2="202.2668464166774"/><line class="link" x1="1077.0453261454566" y1="283.6021331186119" x2="1156.7398081701213" y2="336.7667717080074"/><line class="link" x1="1077.0453261454566" y1="283.6021331186119" x2="1171.7224641442156" y2="270.4604826677816"/><line class="link" x1="1077.0453261454566" y1="283.6021331186119" x2="1170.2691348654564" y2="305.5226169905504"/><line class="link" x1="1009.5613570569863" y1="347.92018977341803" x2="1059.7993473651156" y2="430.05193117596446"/><line class="link" x1="1062.8248766757624" y1="215.894751376126" x2="1152.0666711503932" y2="180.92124848804502"/><line class="link" x1="1055.311833319215" y1="311.5397749405749" x2="1131.3607395055628" y2="370.52031615148405"/><line class="link" x1="1042.3914666661244" y1="187.38887412654861" x2="1126.5077883069503" y2="141.45060406507298"/><line class="link" x1="1071.3294889254068" y1="248.06243838808555" x2="1164.5500066066631" y2="225.6143114879542"/><line class="link" x1="1036.576692423022" y1="332.6817770752967" x2="1101.2811012582345" y2="404.12420151486765"/><line class="link" x1="1009.3855258885293" y1="164.55888141516022" x2="1091.248979047785" y2="115.79795994206029"/><line class="link" x1="1009.3855258885293" y1="164.55888141516022" x2="1065.5111886853163" y2="87.72916114717583"/><g class="node" transform="translate(440.44812008594016, 9.654166104022428)"><circle r="20" style="fill: rgb(69, 114, 24);"/><text dy=".15em">/</text></g><g class="node" transform="translate(510.79470624321, 77.40619442287263)"><circle r="18.5" style="fill: rgb(84, 139, 29);"/><text dy=".15em">https/</text></g><g class="node" transform="translate(598.6102077681333, 128.71882494702467)"><circle r="17" style="fill: rgb(102, 168, 35);"/><text dy=".15em">goofy-euclid-1cd736.netlify.app/</text></g><g class="node" transform="translate(676.9531060579878, 75.45432069939211)"><circle r="15.5" style="fill: rgb(219, 93, 93);"/><text dy=".15em"/></g><g class="node" transform="translate(648.1888903976551, 331.2910002369757)"><circle r="15.5" style="fill: rgb(117, 194, 41);"/><text dy=".15em"/></g><g class="node" transform="translate(587.5006788982467, 31.241186468963697)"><circle r="15.5" style="fill: rgb(117, 194, 41);"/><text dy=".15em"/></g><g class="node" transform="translate(500.113829627875, 181.26999502529105)"><circle r="15.5" style="fill: rgb(117, 194, 41);"/><text dy=".15em"/></g><g class="node" transform="translate(566.9324324241678, 39.55442347815537)"><circle r="15.5" style="fill: rgb(117, 194, 41);"/><text dy=".15em"/></g><g class="node" transform="translate(642.6410280328214, 10.198385244724735)"><circle r="15.5" style="fill: rgb(117, 194, 41);"/><text dy=".15em"/></g><g class="node" transform="translate(527.1617167588402, 65.40179892116872)"><circle r="15.5" style="fill: rgb(219, 93, 93);"/><text dy=".15em"/></g><g class="node" transform="translate(505.2132993902755, 105.14721497906467)"><circle r="15.5" style="fill: rgb(117, 194, 41);"/><text dy=".15em"/></g><g class="node" transform="translate(550.4452808370812, 12.186312980825642)"><circle r="15.5" style="fill: rgb(117, 194, 41);"/><text dy=".15em"/></g><g class="node" transform="translate(743.1563438479842, 322.595850101054)"><circle r="14" style="fill: rgb(133, 212, 53);"/><text dy=".15em"/></g><g class="node" transform="translate(676.0885818921125, 519.4740822849002)"><circle r="14" style="fill: rgb(133, 212, 53);"/><text dy=".15em"/></g><g class="node" transform="translate(564.8996856242957, 375.0525842265816)"><circle r="14" style="fill: rgb(133, 212, 53);"/><text dy=".15em"/></g><g class="node" transform="translate(729.9739082899791, 380.2416552985132)"><circle r="14" style="fill: rgb(133, 212, 53);"/><text dy=".15em"/></g><g class="node" transform="translate(551.4257279757328, 350.5565926483962)"><circle r="14" style="fill: rgb(133, 212, 53);"/><text dy=".15em"/></g><g class="node" transform="translate(675.8629950540329, 241.24237891276172)"><circle r="14" style="fill: rgb(133, 212, 53);"/><text dy=".15em"/></g><g class="node" transform="translate(645.1944120256346, 425.0621707267616)"><circle r="14" style="fill: rgb(133, 212, 53);"/><text dy=".15em"/></g><g class="node" transform="translate(582.4463923782554, 398.88898336275986)"><circle r="14" style="fill: rgb(222, 109, 109);"/><text dy=".15em"/></g><g class="node" transform="translate(601.1827020891701, 249.35598261632475)"><circle r="14" style="fill: rgb(222, 109, 109);"/><text dy=".15em"/></g><g class="node" transform="translate(600.7989996660036, 416.228719646836)"><circle r="14" style="fill: rgb(133, 212, 53);"/><text dy=".15em"/></g><g class="node" transform="translate(560.28628210045, 298.63918501424)"><circle r="14" style="fill: rgb(133, 212, 53);"/><text dy=".15em"/></g><g class="node" transform="translate(709.6480644166282, 403.37755269040997)"><circle r="14" style="fill: rgb(133, 212, 53);"/><text dy=".15em"/></g><g class="node" transform="translate(508.48120581032896, -26.826431166293784)"><circle r="14" style="fill: rgb(222, 109, 109);"/><text dy=".15em"/></g><g class="node" transform="translate(401.3589772224859, 251.5623053969079)"><circle r="14" style="fill: rgb(133, 212, 53);"/><text dy=".15em"/></g><g class="node" transform="translate(737.2931791944801, 41.15680551721831)"><circle r="14" style="fill: rgb(133, 212, 53);"/><text dy=".15em"/></g><g class="node" transform="translate(561.8121597476686, -70.86286079199459)"><circle r="14" style="fill: rgb(133, 212, 53);"/><text dy=".15em"/></g><g class="node" transform="translate(731.3340741891556, -72.68197246713753)"><circle r="14" style="fill: rgb(133, 212, 53);"/><text dy=".15em"/></g><g class="node" transform="translate(588.2138396375527, 150.2918511393571)"><circle r="14" style="fill: rgb(222, 109, 109);"/><text dy=".15em"/></g><g class="node" transform="translate(503.2801137285176, -106.43412463206282)"><circle r="14" style="fill: rgb(133, 212, 53);"/><text dy=".15em"/></g><g class="node" transform="translate(600.9842735987148, 586.1486014923762)"><circle r="12.5" style="fill: rgb(151, 219, 82);"/><text dy=".15em"/></g><g class="node" transform="translate(575.6727330888673, 534.9986304875622)"><circle r="12.5" style="fill: rgb(151, 219, 82);"/><text dy=".15em"/></g><g class="node" transform="translate(721.6248168558589, 701.8794497618835)"><circle r="12.5" style="fill: rgb(151, 219, 82);"/><text dy=".15em"/></g><g class="node" transform="translate(753.3035618094049, 382.679776962153)"><circle r="12.5" style="fill: rgb(151, 219, 82);"/><text dy=".15em"/></g><g class="node" transform="translate(587.6937474519526, 554.8958378046096)"><circle r="12.5" style="fill: rgb(151, 219, 82);"/><text dy=".15em"/></g><g class="node" transform="translate(570.2525779768986, 588.8343416792302)"><circle r="12.5" style="fill: rgb(151, 219, 82);"/><text dy=".15em"/></g><g class="node" transform="translate(669.8435828708874, 453.14027941052285)"><circle r="12.5" style="fill: rgb(226, 126, 126);"/><text dy=".15em"/></g><g class="node" transform="translate(464.17677742685646, 390.135910467463)"><circle r="12.5" style="fill: rgb(226, 126, 126);"/><text dy=".15em"/></g><g class="node" transform="translate(487.34824500106953, 423.0338709942195)"><circle r="12.5" style="fill: rgb(226, 126, 126);"/><text dy=".15em"/></g><g class="node" transform="translate(521.7363935067017, 472.1641893102335)"><circle r="12.5" style="fill: rgb(151, 219, 82);"/><text dy=".15em"/></g><g class="node" transform="translate(240.94229199561093, 258.872036744459)"><circle r="12.5" style="fill: rgb(151, 219, 82);"/><text dy=".15em"/></g><g class="node" transform="translate(542.8793854245775, 243.06925509391115)"><circle r="12.5" style="fill: rgb(151, 219, 82);"/><text dy=".15em"/></g><g class="node" transform="translate(390.05424394663385, 355.767583736438)"><circle r="12.5" style="fill: rgb(151, 219, 82);"/><text dy=".15em"/></g><g class="node" transform="translate(816.7715354969199, 95.2450331332154)"><circle r="12.5" style="fill: rgb(226, 126, 126);"/><text dy=".15em"/></g><g class="node" transform="translate(474.83539043279296, -138.4558968411942)"><circle r="12.5" style="fill: rgb(151, 219, 82);"/><text dy=".15em"/></g><g class="node" transform="translate(816.1772417106993, -147.64656921099598)"><circle r="12.5" style="fill: rgb(151, 219, 82);"/><text dy=".15em"/></g><g class="node" transform="translate(512.6428216141278, -207.04622061097996)"><circle r="12.5" style="fill: rgb(151, 219, 82);"/><text dy=".15em"/></g><g class="node" transform="translate(442.4588116594953, -188.09337786923243)"><circle r="12.5" style="fill: rgb(151, 219, 82);"/><text dy=".15em"/></g><g class="node" transform="translate(475.458891036217, -204.8163039831698)"><circle r="12.5" style="fill: rgb(151, 219, 82);"/><text dy=".15em"/></g><g class="node" transform="translate(537.1622907059868, 659.9374393451063)"><circle r="11" style="fill: rgb(230, 143, 143);"/><text dy=".15em"/></g><g class="node" transform="translate(487.72087554358274, 577.6579810922843)"><circle r="11" style="fill: rgb(166, 224, 108);"/><text dy=".15em"/></g><g class="node" transform="translate(680.0170045806611, 789.4223324718366)"><circle r="11" style="fill: rgb(166, 224, 108);"/><text dy=".15em"/></g><g class="node" transform="translate(779.7823575173726, 625.1383059701154)"><circle r="11" style="fill: rgb(166, 224, 108);"/><text dy=".15em"/></g><g class="node" transform="translate(777.7790500010535, 780.4912893246745)"><circle r="11" style="fill: rgb(230, 143, 143);"/><text dy=".15em"/></g><g class="node" transform="translate(646.9568833736175, 762.0578912455595)"><circle r="11" style="fill: rgb(230, 143, 143);"/><text dy=".15em"/></g><g class="node" transform="translate(763.1005627913419, 615.3779769390187)"><circle r="11" style="fill: rgb(230, 143, 143);"/><text dy=".15em"/></g><g class="node" transform="translate(752.476748799534, 794.2560551957463)"><circle r="11" style="fill: rgb(230, 143, 143);"/><text dy=".15em"/></g><g class="node" transform="translate(627.4855622908268, 683.6126493533988)"><circle r="11" style="fill: rgb(166, 224, 108);"/><text dy=".15em"/></g><g class="node" transform="translate(817.904394108855, 710.7248526012091)"><circle r="11" style="fill: rgb(230, 143, 143);"/><text dy=".15em"/></g><g class="node" transform="translate(695.1083795172522, 795.2068262138635)"><circle r="11" style="fill: rgb(230, 143, 143);"/><text dy=".15em"/></g><g class="node" transform="translate(804.0674833133293, 652.9176453460037)"><circle r="11" style="fill: rgb(230, 143, 143);"/><text dy=".15em"/></g><g class="node" transform="translate(803.4497626943769, 754.3316591336552)"><circle r="11" style="fill: rgb(230, 143, 143);"/><text dy=".15em"/></g><g class="node" transform="translate(632.6876128881885, 738.912438905294)"><circle r="11" style="fill: rgb(230, 143, 143);"/><text dy=".15em"/></g><g class="node" transform="translate(793.1142296937163, 637.2240611011964)"><circle r="11" style="fill: rgb(166, 224, 108);"/><text dy=".15em"/></g><g class="node" transform="translate(724.515478491303, 799.1372480272255)"><circle r="11" style="fill: rgb(230, 143, 143);"/><text dy=".15em"/></g><g class="node" transform="translate(641.2810257126634, 651.5838024212393)"><circle r="11" style="fill: rgb(230, 143, 143);"/><text dy=".15em"/></g><g class="node" transform="translate(810.5496322789829, 741.0533604041367)"><circle r="11" style="fill: rgb(230, 143, 143);"/><text dy=".15em"/></g><g class="node" transform="translate(666.1059242527997, 780.6082594095434)"><circle r="11" style="fill: rgb(166, 224, 108);"/><text dy=".15em"/></g><g class="node" transform="translate(741.9239010326098, 608.553542834488)"><circle r="11" style="fill: rgb(166, 224, 108);"/><text dy=".15em"/></g><g class="node" transform="translate(793.3928533671028, 766.3747764613754)"><circle r="11" style="fill: rgb(166, 224, 108);"/><text dy=".15em"/></g><g class="node" transform="translate(625.1612402118565, 704.9864365384333)"><circle r="11" style="fill: rgb(166, 224, 108);"/><text dy=".15em"/></g><g class="node" transform="translate(813.7605873702396, 674.3929257922043)"><circle r="11" style="fill: rgb(166, 224, 108);"/><text dy=".15em"/></g><g class="node" transform="translate(710.0943236993999, 798.3807930826558)"><circle r="11" style="fill: rgb(166, 224, 108);"/><text dy=".15em"/></g><g class="node" transform="translate(712.372909207995, 607.4889397688905)"><circle r="11" style="fill: rgb(166, 224, 108);"/><text dy=".15em"/></g><g class="node" transform="translate(815.4302208545623, 726.8746203640062)"><circle r="11" style="fill: rgb(166, 224, 108);"/><text dy=".15em"/></g><g class="node" transform="translate(660.6486771479904, 846.3507761507723)"><circle r="11" style="fill: rgb(166, 224, 108);"/><text dy=".15em"/></g><g class="node" transform="translate(825.0137889470695, 654.0899581928211)"><circle r="11" style="fill: rgb(166, 224, 108);"/><text dy=".15em"/></g><g class="node" transform="translate(739.1416806052871, 797.7087352187731)"><circle r="11" style="fill: rgb(230, 143, 143);"/><text dy=".15em"/></g><g class="node" transform="translate(648.3162275405521, 779.934616011462)"><circle r="11" style="fill: rgb(166, 224, 108);"/><text dy=".15em"/></g><g class="node" transform="translate(817.6805750596523, 692.490168838931)"><circle r="11" style="fill: rgb(230, 143, 143);"/><text dy=".15em"/></g><g class="node" transform="translate(629.0704142841821, 756.4420233503236)"><circle r="11" style="fill: rgb(166, 224, 108);"/><text dy=".15em"/></g><g class="node" transform="translate(851.1203132037814, 705.7421378957911)"><circle r="11" style="fill: rgb(166, 224, 108);"/><text dy=".15em"/></g><g class="node" transform="translate(765.6159333741047, 788.6712922292246)"><circle r="11" style="fill: rgb(230, 143, 143);"/><text dy=".15em"/></g><g class="node" transform="translate(627.1105271002396, 722.8104587328658)"><circle r="11" style="fill: rgb(230, 143, 143);"/><text dy=".15em"/></g><g class="node" transform="translate(656.6350663301141, 609.5496156125423)"><circle r="11" style="fill: rgb(166, 224, 108);"/><text dy=".15em"/></g><g class="node" transform="translate(796.266304634551, 784.4801816745552)"><circle r="11" style="fill: rgb(166, 224, 108);"/><text dy=".15em"/></g><g class="node" transform="translate(738.3020676579624, 286.7893806177565)"><circle r="11" style="fill: rgb(166, 224, 108);"/><text dy=".15em"/></g><g class="node" transform="translate(800.569296029934, 467.3216945354046)"><circle r="11" style="fill: rgb(166, 224, 108);"/><text dy=".15em"/></g><g class="node" transform="translate(747.0982425393165, 249.50905590669888)"><circle r="11" style="fill: rgb(166, 224, 108);"/><text dy=".15em"/></g><g class="node" transform="translate(832.7932803445774, 325.00591289559543)"><circle r="11" style="fill: rgb(166, 224, 108);"/><text dy=".15em"/></g><g class="node" transform="translate(849.9108060624407, 395.99588190300227)"><circle r="11" style="fill: rgb(166, 224, 108);"/><text dy=".15em"/></g><g class="node" transform="translate(480.0578082259322, 627.1712927133494)"><circle r="11" style="fill: rgb(230, 143, 143);"/><text dy=".15em"/></g><g class="node" transform="translate(508.15512317938874, 665.3980956534153)"><circle r="11" style="fill: rgb(230, 143, 143);"/><text dy=".15em"/></g><g class="node" transform="translate(491.8319088972344, 648.2020494182462)"><circle r="11" style="fill: rgb(230, 143, 143);"/><text dy=".15em"/></g><g class="node" transform="translate(96.1545192648938, 269.810398398408)"><circle r="11" style="fill: rgb(166, 224, 108);"/><text dy=".15em"/></g><g class="node" transform="translate(698.7225745649545, 241.17875159953567)"><circle r="11" style="fill: rgb(166, 224, 108);"/><text dy=".15em"/></g><g class="node" transform="translate(376.23535589482736, 460.1501831608525)"><circle r="11" style="fill: rgb(166, 224, 108);"/><text dy=".15em"/></g><g class="node" transform="translate(390.85061228676835, -197.62706759906027)"><circle r="11" style="fill: rgb(166, 224, 108);"/><text dy=".15em"/></g><g class="node" transform="translate(894.4563911824112, -85.41904063825316)"><circle r="11" style="fill: rgb(166, 224, 108);"/><text dy=".15em"/></g><g class="node" transform="translate(737.7086838984471, -208.06991046626345)"><circle r="11" style="fill: rgb(166, 224, 108);"/><text dy=".15em"/></g><g class="node" transform="translate(904.5160787262391, -191.75605545267234)"><circle r="11" style="fill: rgb(166, 224, 108);"/><text dy=".15em"/></g><g class="node" transform="translate(857.0055898182644, -58.864783598824566)"><circle r="11" style="fill: rgb(166, 224, 108);"/><text dy=".15em"/></g><g class="node" transform="translate(776.8416318673991, -238.08211202069833)"><circle r="11" style="fill: rgb(166, 224, 108);"/><text dy=".15em"/></g><g class="node" transform="translate(913.8787610420324, -124.35902250395934)"><circle r="11" style="fill: rgb(166, 224, 108);"/><text dy=".15em"/></g><g class="node" transform="translate(824.7054631638393, -51.08316044514855)"><circle r="11" style="fill: rgb(166, 224, 108);"/><text dy=".15em"/></g><g class="node" transform="translate(885.131940802451, -213.20457845024484)"><circle r="11" style="fill: rgb(166, 224, 108);"/><text dy=".15em"/></g><g class="node" transform="translate(901.6237020828561, -106.09834555703408)"><circle r="11" style="fill: rgb(166, 224, 108);"/><text dy=".15em"/></g><g class="node" transform="translate(807.0236055824721, -245.1320195390561)"><circle r="11" style="fill: rgb(166, 224, 108);"/><text dy=".15em"/></g><g class="node" transform="translate(915.2428476794254, -143.15544911843378)"><circle r="11" style="fill: rgb(166, 224, 108);"/><text dy=".15em"/></g><g class="node" transform="translate(723.8770718924549, -181.51337324081172)"><circle r="11" style="fill: rgb(166, 224, 108);"/><text dy=".15em"/></g><g class="node" transform="translate(842.0793506518172, -241.53942624937275)"><circle r="11" style="fill: rgb(166, 224, 108);"/><text dy=".15em"/></g><g class="node" transform="translate(875.7323685861824, -68.37068727405412)"><circle r="11" style="fill: rgb(166, 224, 108);"/><text dy=".15em"/></g><g class="node" transform="translate(757.4536141663343, -226.70159090403092)"><circle r="11" style="fill: rgb(166, 224, 108);"/><text dy=".15em"/></g><g class="node" transform="translate(913.1962018810794, -168.32093548478034)"><circle r="11" style="fill: rgb(166, 224, 108);"/><text dy=".15em"/></g><g class="node" transform="translate(780.1424797181819, -59.94007989496803)"><circle r="11" style="fill: rgb(166, 224, 108);"/><text dy=".15em"/></g><g class="node" transform="translate(864.3243472933265, -232.1906914148712)"><circle r="11" style="fill: rgb(166, 224, 108);"/><text dy=".15em"/></g><g class="node" transform="translate(549.0386801438418, -295.58324005373504)"><circle r="11" style="fill: rgb(230, 143, 143);"/><text dy=".15em"/></g><g class="node" transform="translate(400.9782557155393, -275.10731061583084)"><circle r="11" style="fill: rgb(230, 143, 143);"/><text dy=".15em"/></g><g class="node" transform="translate(459.4689810926539, -299.8048876526924)"><circle r="11" style="fill: rgb(230, 143, 143);"/><text dy=".15em"/></g><g class="node" transform="translate(683.828742621773, 940.1985971422358)"><circle r="9.5" style="fill: rgb(181, 230, 133);"/><text dy=".15em"/></g><g class="node" transform="translate(615.7988945501115, 931.4739886527202)"><circle r="9.5" style="fill: rgb(181, 230, 133);"/><text dy=".15em"/></g><g class="node" transform="translate(714.1796958825158, 926.9730455921938)"><circle r="9.5" style="fill: rgb(181, 230, 133);"/><text dy=".15em"/></g><g class="node" transform="translate(651.5219967919957, 942.4313507647406)"><circle r="9.5" style="fill: rgb(181, 230, 133);"/><text dy=".15em"/></g><g class="node" transform="translate(581.4951788944181, 902.0576154349474)"><circle r="9.5" style="fill: rgb(181, 230, 133);"/><text dy=".15em"/></g><g class="node" transform="translate(580.5657757734638, 949.8196136104197)"><circle r="9.5" style="fill: rgb(181, 230, 133);"/><text dy=".15em"/></g><g class="node" transform="translate(905.1891788416996, 598.8058705134434)"><circle r="9.5" style="fill: rgb(234, 160, 160);"/><text dy=".15em"/></g><g class="node" transform="translate(920.0880163540443, 633.0726038232871)"><circle r="9.5" style="fill: rgb(181, 230, 133);"/><text dy=".15em"/></g><g class="node" transform="translate(571.801906133551, 842.4190272113825)"><circle r="9.5" style="fill: rgb(181, 230, 133);"/><text dy=".15em"/></g><g class="node" transform="translate(541.986460336854, 803.9414185541061)"><circle r="9.5" style="fill: rgb(181, 230, 133);"/><text dy=".15em"/></g><g class="node" transform="translate(969.673091930894, 685.9661060768718)"><circle r="9.5" style="fill: rgb(181, 230, 133);"/><text dy=".15em"/></g><g class="node" transform="translate(945.7943285040157, 745.1999951566642)"><circle r="9.5" style="fill: rgb(181, 230, 133);"/><text dy=".15em"/></g><g class="node" transform="translate(582.7583621945315, 503.43372714891103)"><circle r="9.5" style="fill: rgb(181, 230, 133);"/><text dy=".15em"/></g><g class="node" transform="translate(868.4836047293433, 860.3667153589013)"><circle r="9.5" style="fill: rgb(181, 230, 133);"/><text dy=".15em"/></g><g class="node" transform="translate(672.8064725414088, 215.92671160895912)"><circle r="9.5" style="fill: rgb(234, 160, 160);"/><text dy=".15em"/></g><g class="node" transform="translate(727.8786351300455, 530.2900395507854)"><circle r="9.5" style="fill: rgb(181, 230, 133);"/><text dy=".15em"/></g><g class="node" transform="translate(707.32798741142, 479.0161293995397)"><circle r="9.5" style="fill: rgb(181, 230, 133);"/><text dy=".15em"/></g><g class="node" transform="translate(709.9553340407383, 121.50818594794262)"><circle r="9.5" style="fill: rgb(181, 230, 133);"/><text dy=".15em"/></g><g class="node" transform="translate(842.1826547855306, 273.18610115049034)"><circle r="9.5" style="fill: rgb(181, 230, 133);"/><text dy=".15em"/></g><g class="node" transform="translate(870.783360066663, 236.0263687446357)"><circle r="9.5" style="fill: rgb(234, 160, 160);"/><text dy=".15em"/></g><g class="node" transform="translate(943.8662433507873, 388.4220383530986)"><circle r="9.5" style="fill: rgb(181, 230, 133);"/><text dy=".15em"/></g><g class="node" transform="translate(18.916966762373562, 324.2190821073667)"><circle r="9.5" style="fill: rgb(181, 230, 133);"/><text dy=".15em"/></g><g class="node" transform="translate(79.0812010384143, 154.39280617322697)"><circle r="9.5" style="fill: rgb(181, 230, 133);"/><text dy=".15em"/></g><g class="node" transform="translate(146.09906627981343, 184.44981856664526)"><circle r="9.5" style="fill: rgb(234, 160, 160);"/><text dy=".15em"/></g><g class="node" transform="translate(58.66810682786094, 484.4218615078325)"><circle r="9.5" style="fill: rgb(181, 230, 133);"/><text dy=".15em"/></g><g class="node" transform="translate(126.25914471813539, 156.2990996324119)"><circle r="9.5" style="fill: rgb(234, 160, 160);"/><text dy=".15em"/></g><g class="node" transform="translate(127.49314848056017, 361.69002792600605)"><circle r="9.5" style="fill: rgb(234, 160, 160);"/><text dy=".15em"/></g><g class="node" transform="translate(-47.99833881755796, 159.27141363118722)"><circle r="9.5" style="fill: rgb(181, 230, 133);"/><text dy=".15em"/></g><g class="node" transform="translate(175.84744485949494, 176.9270353874424)"><circle r="9.5" style="fill: rgb(234, 160, 160);"/><text dy=".15em"/></g><g class="node" transform="translate(-5.159522050219473, 297.4193095930146)"><circle r="9.5" style="fill: rgb(234, 160, 160);"/><text dy=".15em"/></g><g class="node" transform="translate(49.314250698005196, 181.66608432645913)"><circle r="9.5" style="fill: rgb(234, 160, 160);"/><text dy=".15em"/></g><g class="node" transform="translate(202.66404060616972, 297.4589692195968)"><circle r="9.5" style="fill: rgb(234, 160, 160);"/><text dy=".15em"/></g><g class="node" transform="translate(-4.631675493780465, 272.52483900864553)"><circle r="9.5" style="fill: rgb(234, 160, 160);"/><text dy=".15em"/></g><g class="node" transform="translate(99.52473641711192, 173.48065499724729)"><circle r="9.5" style="fill: rgb(234, 160, 160);"/><text dy=".15em"/></g><g class="node" transform="translate(181.8968772578792, 222.60267454563908)"><circle r="9.5" style="fill: rgb(234, 160, 160);"/><text dy=".15em"/></g><g class="node" transform="translate(5.880340211075507, 230.25275853844974)"><circle r="9.5" style="fill: rgb(234, 160, 160);"/><text dy=".15em"/></g><g class="node" transform="translate(848.286250037029, 246.09215793193732)"><circle r="9.5" style="fill: rgb(181, 230, 133);"/><text dy=".15em"/></g><g class="node" transform="translate(358.75385562550247, 556.0512238350107)"><circle r="9.5" style="fill: rgb(181, 230, 133);"/><text dy=".15em"/></g><g class="node" transform="translate(321.27619333490645, -262.9649536124168)"><circle r="9.5" style="fill: rgb(181, 230, 133);"/><text dy=".15em"/></g><g class="node" transform="translate(979.2228902994996, -37.22776078317803)"><circle r="9.5" style="fill: rgb(181, 230, 133);"/><text dy=".15em"/></g><g class="node" transform="translate(674.3647351704993, -281.3115309469513)"><circle r="9.5" style="fill: rgb(181, 230, 133);"/><text dy=".15em"/></g><g class="node" transform="translate(999.9779328744933, -203.45297345324437)"><circle r="9.5" style="fill: rgb(181, 230, 133);"/><text dy=".15em"/></g><g class="node" transform="translate(940.8429079670669, -10.5419989531843)"><circle r="9.5" style="fill: rgb(181, 230, 133);"/><text dy=".15em"/></g><g class="node" transform="translate(712.0827492967124, -309.77859382073547)"><circle r="9.5" style="fill: rgb(181, 230, 133);"/><text dy=".15em"/></g><g class="node" transform="translate(1010.3153418971445, -109.06025925052552)"><circle r="9.5" style="fill: rgb(181, 230, 133);"/><text dy=".15em"/></g><g class="node" transform="translate(877.3219932549773, 29.60733423235567)"><circle r="9.5" style="fill: rgb(181, 230, 133);"/><text dy=".15em"/></g><g class="node" transform="translate(796.8036349830627, -340.22139536899357)"><circle r="9.5" style="fill: rgb(181, 230, 133);"/><text dy=".15em"/></g><g class="node" transform="translate(995.2038385882119, -87.84565106333231)"><circle r="9.5" style="fill: rgb(181, 230, 133);"/><text dy=".15em"/></g><g class="node" transform="translate(649.26640989391, -242.8738032938021)"><circle r="9.5" style="fill: rgb(181, 230, 133);"/><text dy=".15em"/></g><g class="node" transform="translate(929.2764301022817, -281.2562782937754)"><circle r="9.5" style="fill: rgb(181, 230, 133);"/><text dy=".15em"/></g><g class="node" transform="translate(927.5386432173694, 14.000505002984314)"><circle r="9.5" style="fill: rgb(181, 230, 133);"/><text dy=".15em"/></g><g class="node" transform="translate(739.5808432448218, -321.4168191200347)"><circle r="9.5" style="fill: rgb(181, 230, 133);"/><text dy=".15em"/></g><g class="node" transform="translate(1009.1851114325326, -155.97637467009275)"><circle r="9.5" style="fill: rgb(234, 160, 160);"/><text dy=".15em"/></g><g class="node" transform="translate(820.7955979316581, 26.092479614917288)"><circle r="9.5" style="fill: rgb(181, 230, 133);"/><text dy=".15em"/></g><g class="node" transform="translate(887.5785662121883, -324.4024849181251)"><circle r="9.5" style="fill: rgb(181, 230, 133);"/><text dy=".15em"/></g><g class="node" transform="translate(527.9587006936196, 1029.629345641082)"><circle r="8" style="fill: rgb(238, 180, 180);"/><text dy=".15em"/></g><g class="node" transform="translate(486.25589606206955, 968.897450143504)"><circle r="8" style="fill: rgb(238, 180, 180);"/><text dy=".15em"/></g><g class="node" transform="translate(572.6513387315553, 1044.7731761757896)"><circle r="8" style="fill: rgb(238, 180, 180);"/><text dy=".15em"/></g><g class="node" transform="translate(500.2475284027958, 1002.3747495771661)"><circle r="8" style="fill: rgb(238, 180, 180);"/><text dy=".15em"/></g><g class="node" transform="translate(623.3733130956356, 1035.0270741430986)"><circle r="8" style="fill: rgb(238, 180, 180);"/><text dy=".15em"/></g><g class="node" transform="translate(1061.59976246519, 715.6799564264355)"><circle r="8" style="fill: rgb(197, 235, 158);"/><text dy=".15em"/></g><g class="node" transform="translate(1050.8654404406325, 627.7347552318951)"><circle r="8" style="fill: rgb(197, 235, 158);"/><text dy=".15em"/></g><g class="node" transform="translate(1065.9758733317376, 667.6201647749891)"><circle r="8" style="fill: rgb(197, 235, 158);"/><text dy=".15em"/></g><g class="node" transform="translate(1029.4207402016605, 791.0328944172558)"><circle r="8" style="fill: rgb(197, 235, 158);"/><text dy=".15em"/></g><g class="node" transform="translate(518.4557318417635, 402.2631676236548)"><circle r="8" style="fill: rgb(197, 235, 158);"/><text dy=".15em"/></g><g class="node" transform="translate(945.2103201630149, 916.4293400762659)"><circle r="8" style="fill: rgb(238, 180, 180);"/><text dy=".15em"/></g><g class="node" transform="translate(645.0331734574768, 579.2318035713815)"><circle r="8" style="fill: rgb(238, 180, 180);"/><text dy=".15em"/></g><g class="node" transform="translate(672.178746775494, 4.181032586568852)"><circle r="8" style="fill: rgb(238, 180, 180);"/><text dy=".15em"/></g><g class="node" transform="translate(929.3965933942902, 315.858782384888)"><circle r="8" style="fill: rgb(197, 235, 158);"/><text dy=".15em"/></g><g class="node" transform="translate(78.05163441504561, 55.14935590868464)"><circle r="8" style="fill: rgb(238, 180, 180);"/><text dy=".15em"/></g><g class="node" transform="translate(96.72616321071348, 56.822984301423695)"><circle r="8" style="fill: rgb(238, 180, 180);"/><text dy=".15em"/></g><g class="node" transform="translate(57.33734446313673, 57.43171533126258)"><circle r="8" style="fill: rgb(238, 180, 180);"/><text dy=".15em"/></g><g class="node" transform="translate(174.1329294909668, 92.09137586943854)"><circle r="8" style="fill: rgb(238, 180, 180);"/><text dy=".15em"/></g><g class="node" transform="translate(208.25762178068643, 111.57874644255543)"><circle r="8" style="fill: rgb(238, 180, 180);"/><text dy=".15em"/></g><g class="node" transform="translate(20.88448888304948, 574.9241727460219)"><circle r="8" style="fill: rgb(238, 180, 180);"/><text dy=".15em"/></g><g class="node" transform="translate(-31.20046043455854, 447.78251003768975)"><circle r="8" style="fill: rgb(238, 180, 180);"/><text dy=".15em"/></g><g class="node" transform="translate(135.45132979357112, 546.3788742500665)"><circle r="8" style="fill: rgb(238, 180, 180);"/><text dy=".15em"/></g><g class="node" transform="translate(-33.20517467354535, 520.1936868314215)"><circle r="8" style="fill: rgb(238, 180, 180);"/><text dy=".15em"/></g><g class="node" transform="translate(152.69580424446633, 466.4404991851939)"><circle r="8" style="fill: rgb(238, 180, 180);"/><text dy=".15em"/></g><g class="node" transform="translate(54.88871153231185, 582.4324939960379)"><circle r="8" style="fill: rgb(238, 180, 180);"/><text dy=".15em"/></g><g class="node" transform="translate(-22.909760899921327, 432.9004807411206)"><circle r="8" style="fill: rgb(238, 180, 180);"/><text dy=".15em"/></g><g class="node" transform="translate(121.21249994519299, 560.810448676073)"><circle r="8" style="fill: rgb(238, 180, 180);"/><text dy=".15em"/></g><g class="node" transform="translate(-28.873279021622714, 529.9958142899657)"><circle r="8" style="fill: rgb(238, 180, 180);"/><text dy=".15em"/></g><g class="node" transform="translate(141.39164993963152, 438.21270754927895)"><circle r="8" style="fill: rgb(238, 180, 180);"/><text dy=".15em"/></g><g class="node" transform="translate(45.620643642606126, 585.2046038571325)"><circle r="8" style="fill: rgb(238, 180, 180);"/><text dy=".15em"/></g><g class="node" transform="translate(-38.54728531122709, 498.06686226955196)"><circle r="8" style="fill: rgb(238, 180, 180);"/><text dy=".15em"/></g><g class="node" transform="translate(114.43695105397103, 567.7199386474554)"><circle r="8" style="fill: rgb(238, 180, 180);"/><text dy=".15em"/></g><g class="node" transform="translate(4.564941105153059, 566.6998368539475)"><circle r="8" style="fill: rgb(238, 180, 180);"/><text dy=".15em"/></g><g class="node" transform="translate(-9.800463391300353, 417.3516679951267)"><circle r="8" style="fill: rgb(238, 180, 180);"/><text dy=".15em"/></g><g class="node" transform="translate(105.31086008633116, 571.0080556941805)"><circle r="8" style="fill: rgb(238, 180, 180);"/><text dy=".15em"/></g><g class="node" transform="translate(-36.53789677198982, 509.3847416205233)"><circle r="8" style="fill: rgb(238, 180, 180);"/><text dy=".15em"/></g><g class="node" transform="translate(154.25538054167376, 501.7622755281615)"><circle r="8" style="fill: rgb(238, 180, 180);"/><text dy=".15em"/></g><g class="node" transform="translate(37.44844021832778, 580.1291153529903)"><circle r="8" style="fill: rgb(238, 180, 180);"/><text dy=".15em"/></g><g class="node" transform="translate(-23.779371456091603, 539.0750478709172)"><circle r="8" style="fill: rgb(238, 180, 180);"/><text dy=".15em"/></g><g class="node" transform="translate(98.44004613591453, 577.5103015450376)"><circle r="8" style="fill: rgb(238, 180, 180);"/><text dy=".15em"/></g><g class="node" transform="translate(-17.885017116698545, 547.4622300972272)"><circle r="8" style="fill: rgb(238, 180, 180);"/><text dy=".15em"/></g><g class="node" transform="translate(155.1891845637626, 485.83937510280197)"><circle r="8" style="fill: rgb(238, 180, 180);"/><text dy=".15em"/></g><g class="node" transform="translate(71.75109834159193, 581.4838213661593)"><circle r="8" style="fill: rgb(238, 180, 180);"/><text dy=".15em"/></g><g class="node" transform="translate(-38.3660360333779, 473.7322172859764)"><circle r="8" style="fill: rgb(238, 180, 180);"/><text dy=".15em"/></g><g class="node" transform="translate(146.97689637598765, 527.1696626778571)"><circle r="8" style="fill: rgb(238, 180, 180);"/><text dy=".15em"/></g><g class="node" transform="translate(11.444805870346853, 573.3273281493942)"><circle r="8" style="fill: rgb(238, 180, 180);"/><text dy=".15em"/></g><g class="node" transform="translate(10.78039214554622, 402.1666504117627)"><circle r="8" style="fill: rgb(238, 180, 180);"/><text dy=".15em"/></g><g class="node" transform="translate(81.27956385762168, 583.4709293511849)"><circle r="8" style="fill: rgb(238, 180, 180);"/><text dy=".15em"/></g><g class="node" transform="translate(-10.899704812735196, 554.8465712136389)"><circle r="8" style="fill: rgb(238, 180, 180);"/><text dy=".15em"/></g><g class="node" transform="translate(151.37109198335065, 515.2511177865729)"><circle r="8" style="fill: rgb(238, 180, 180);"/><text dy=".15em"/></g><g class="node" transform="translate(88.95559994531874, 577.7777740896466)"><circle r="8" style="fill: rgb(238, 180, 180);"/><text dy=".15em"/></g><g class="node" transform="translate(-35.849722940147444, 460.9305858989173)"><circle r="8" style="fill: rgb(238, 180, 180);"/><text dy=".15em"/></g><g class="node" transform="translate(128.94455009164395, 554.5388105013316)"><circle r="8" style="fill: rgb(238, 180, 180);"/><text dy=".15em"/></g><g class="node" transform="translate(-4.046604630956722, 562.1704600613604)"><circle r="8" style="fill: rgb(238, 180, 180);"/><text dy=".15em"/></g><g class="node" transform="translate(52.298256063115176, 390.1033430836271)"><circle r="8" style="fill: rgb(238, 180, 180);"/><text dy=".15em"/></g><g class="node" transform="translate(63.58048906089351, 586.2286183542581)"><circle r="8" style="fill: rgb(238, 180, 180);"/><text dy=".15em"/></g><g class="node" transform="translate(-39.28401167940313, 485.6841793190674)"><circle r="8" style="fill: rgb(238, 180, 180);"/><text dy=".15em"/></g><g class="node" transform="translate(141.72870624467188, 537.46695619074)"><circle r="8" style="fill: rgb(238, 180, 180);"/><text dy=".15em"/></g><g class="node" transform="translate(28.064431453788426, 581.1255851198439)"><circle r="8" style="fill: rgb(238, 180, 180);"/><text dy=".15em"/></g><g class="node" transform="translate(150.17288889948213, 59.81576550723035)"><circle r="8" style="fill: rgb(238, 180, 180);"/><text dy=".15em"/></g><g class="node" transform="translate(168.1296786140385, 66.20309928320694)"><circle r="8" style="fill: rgb(238, 180, 180);"/><text dy=".15em"/></g><g class="node" transform="translate(131.63766184685232, 56.89696521282048)"><circle r="8" style="fill: rgb(238, 180, 180);"/><text dy=".15em"/></g><g class="node" transform="translate(220.88322782310928, 355.47539936813604)"><circle r="8" style="fill: rgb(238, 180, 180);"/><text dy=".15em"/></g><g class="node" transform="translate(192.94187330954452, 432.0522616931657)"><circle r="8" style="fill: rgb(238, 180, 180);"/><text dy=".15em"/></g><g class="node" transform="translate(151.75252118836752, 271.0392119128793)"><circle r="8" style="fill: rgb(238, 180, 180);"/><text dy=".15em"/></g><g class="node" transform="translate(208.7182551146124, 412.22706560823275)"><circle r="8" style="fill: rgb(238, 180, 180);"/><text dy=".15em"/></g><g class="node" transform="translate(-135.77408291583143, 117.70948466454338)"><circle r="8" style="fill: rgb(238, 180, 180);"/><text dy=".15em"/></g><g class="node" transform="translate(-80.66274427452386, 67.1620509839658)"><circle r="8" style="fill: rgb(238, 180, 180);"/><text dy=".15em"/></g><g class="node" transform="translate(-141.05309199146916, 185.83600839791862)"><circle r="8" style="fill: rgb(238, 180, 180);"/><text dy=".15em"/></g><g class="node" transform="translate(-106.24826164209236, 81.11851272749274)"><circle r="8" style="fill: rgb(238, 180, 180);"/><text dy=".15em"/></g><g class="node" transform="translate(-23.52407352094809, 64.86879922633601)"><circle r="8" style="fill: rgb(238, 180, 180);"/><text dy=".15em"/></g><g class="node" transform="translate(-141.48388067193653, 133.41332904724274)"><circle r="8" style="fill: rgb(238, 180, 180);"/><text dy=".15em"/></g><g class="node" transform="translate(-67.02906622672785, 63.328849039450766)"><circle r="8" style="fill: rgb(238, 180, 180);"/><text dy=".15em"/></g><g class="node" transform="translate(-121.67817032480781, 221.23407907344617)"><circle r="8" style="fill: rgb(238, 180, 180);"/><text dy=".15em"/></g><g class="node" transform="translate(-127.66322709473674, 103.5435067349274)"><circle r="8" style="fill: rgb(238, 180, 180);"/><text dy=".15em"/></g><g class="node" transform="translate(-38.81786522032225, 61.938252599602606)"><circle r="8" style="fill: rgb(238, 180, 180);"/><text dy=".15em"/></g><g class="node" transform="translate(-144.4974700935807, 167.86868259392864)"><circle r="8" style="fill: rgb(238, 180, 180);"/><text dy=".15em"/></g><g class="node" transform="translate(-93.44612050828555, 72.82073253078369)"><circle r="8" style="fill: rgb(238, 180, 180);"/><text dy=".15em"/></g><g class="node" transform="translate(-6.577166989414529, 71.69271863081016)"><circle r="8" style="fill: rgb(238, 180, 180);"/><text dy=".15em"/></g><g class="node" transform="translate(-144.53136191689, 150.2946124873672)"><circle r="8" style="fill: rgb(238, 180, 180);"/><text dy=".15em"/></g><g class="node" transform="translate(-53.76279386896288, 61.59269775506226)"><circle r="8" style="fill: rgb(238, 180, 180);"/><text dy=".15em"/></g><g class="node" transform="translate(-133.8582907059661, 203.51817882503684)"><circle r="8" style="fill: rgb(238, 180, 180);"/><text dy=".15em"/></g><g class="node" transform="translate(-117.73313673864008, 91.3503368828624)"><circle r="8" style="fill: rgb(238, 180, 180);"/><text dy=".15em"/></g><g class="node" transform="translate(224.44468585619737, 90.86141079328279)"><circle r="8" style="fill: rgb(238, 180, 180);"/><text dy=".15em"/></g><g class="node" transform="translate(241.9519573246427, 104.43381917971324)"><circle r="8" style="fill: rgb(238, 180, 180);"/><text dy=".15em"/></g><g class="node" transform="translate(203.8769610094513, 82.08395354764842)"><circle r="8" style="fill: rgb(238, 180, 180);"/><text dy=".15em"/></g><g class="node" transform="translate(257.3129611670632, 123.5118737559215)"><circle r="8" style="fill: rgb(238, 180, 180);"/><text dy=".15em"/></g><g class="node" transform="translate(-95.76693631087275, 336.6383946889985)"><circle r="8" style="fill: rgb(238, 180, 180);"/><text dy=".15em"/></g><g class="node" transform="translate(-102.38530822580569, 288.6016656378405)"><circle r="8" style="fill: rgb(238, 180, 180);"/><text dy=".15em"/></g><g class="node" transform="translate(30.067779603763412, 86.84867646572783)"><circle r="8" style="fill: rgb(238, 180, 180);"/><text dy=".15em"/></g><g class="node" transform="translate(58.77325444891456, 85.82986940748128)"><circle r="8" style="fill: rgb(238, 180, 180);"/><text dy=".15em"/></g><g class="node" transform="translate(294.76736850358174, 272.0981322563253)"><circle r="8" style="fill: rgb(238, 180, 180);"/><text dy=".15em"/></g><g class="node" transform="translate(276.96217065138785, 358.5491899833294)"><circle r="8" style="fill: rgb(238, 180, 180);"/><text dy=".15em"/></g><g class="node" transform="translate(274.5121529372575, 233.83361455240268)"><circle r="8" style="fill: rgb(238, 180, 180);"/><text dy=".15em"/></g><g class="node" transform="translate(297.2649838423924, 310.6376966804751)"><circle r="8" style="fill: rgb(238, 180, 180);"/><text dy=".15em"/></g><g class="node" transform="translate(238.53614676125568, 386.64569730969316)"><circle r="8" style="fill: rgb(238, 180, 180);"/><text dy=".15em"/></g><g class="node" transform="translate(289.71504755098937, 337.62275359878635)"><circle r="8" style="fill: rgb(238, 180, 180);"/><text dy=".15em"/></g><g class="node" transform="translate(260.4455620496556, 374.6236270416283)"><circle r="8" style="fill: rgb(238, 180, 180);"/><text dy=".15em"/></g><g class="node" transform="translate(-95.50706688577436, 306.616514433978)"><circle r="8" style="fill: rgb(238, 180, 180);"/><text dy=".15em"/></g><g class="node" transform="translate(-75.7608830187329, 337.0939358321854)"><circle r="8" style="fill: rgb(238, 180, 180);"/><text dy=".15em"/></g><g class="node" transform="translate(115.72127073648274, 77.992352587853)"><circle r="8" style="fill: rgb(238, 180, 180);"/><text dy=".15em"/></g><g class="node" transform="translate(260.3563288181442, 165.97580883534286)"><circle r="8" style="fill: rgb(238, 180, 180);"/><text dy=".15em"/></g><g class="node" transform="translate(-88.42287692196051, 247.68402824199748)"><circle r="8" style="fill: rgb(238, 180, 180);"/><text dy=".15em"/></g><g class="node" transform="translate(-11.585877706703888, 137.02680759731692)"><circle r="8" style="fill: rgb(238, 180, 180);"/><text dy=".15em"/></g><g class="node" transform="translate(974.1703961197182, 256.23355592319353)"><circle r="8" style="fill: rgb(197, 235, 158);"/><text dy=".15em"/></g><g class="node" transform="translate(1147.5645945128783, 753.4034565703664)"><circle r="6.5" style="fill: rgb(215, 241, 188);"/><text dy=".15em"/></g><g class="node" transform="translate(1133.6001643126922, 576.3843246867315)"><circle r="6.5" style="fill: rgb(215, 241, 188);"/><text dy=".15em"/></g><g class="node" transform="translate(1156.2713179717368, 638.4203163797177)"><circle r="6.5" style="fill: rgb(215, 241, 188);"/><text dy=".15em"/></g><g class="node" transform="translate(457.0375134606451, 311.8931237878241)"><circle r="6.5" style="fill: rgb(215, 241, 188);"/><text dy=".15em"/></g><g class="node" transform="translate(496.55164594315886, 298.1622523859553)"><circle r="6.5" style="fill: rgb(215, 241, 188);"/><text dy=".15em"/></g><g class="node" transform="translate(649.6126880514835, -90.36629895006057)"><circle r="6.5" style="fill: rgb(242, 197, 197);"/><text dy=".15em"/></g><g class="node" transform="translate(595.6635586442213, -55.535985213051255)"><circle r="6.5" style="fill: rgb(242, 197, 197);"/><text dy=".15em"/></g><g class="node" transform="translate(630.0061143116818, -83.78869747362924)"><circle r="6.5" style="fill: rgb(242, 197, 197);"/><text dy=".15em"/></g><g class="node" transform="translate(583.3417308352821, -34.0446463718344)"><circle r="6.5" style="fill: rgb(242, 197, 197);"/><text dy=".15em"/></g><g class="node" transform="translate(612.7034034446482, -73.14756574077872)"><circle r="6.5" style="fill: rgb(242, 197, 197);"/><text dy=".15em"/></g><g class="node" transform="translate(674.2245259687312, -92.32306950346948)"><circle r="6.5" style="fill: rgb(242, 197, 197);"/><text dy=".15em"/></g><g class="node" transform="translate(972.1165669498456, 401.60043024525174)"><circle r="6.5" style="fill: rgb(242, 197, 197);"/><text dy=".15em"/></g><g class="node" transform="translate(1077.0453261454566, 283.6021331186119)"><circle r="6.5" style="fill: rgb(215, 241, 188);"/><text dy=".15em"/></g><g class="node" transform="translate(1009.5613570569863, 347.92018977341803)"><circle r="6.5" style="fill: rgb(215, 241, 188);"/><text dy=".15em"/></g><g class="node" transform="translate(1062.8248766757624, 215.894751376126)"><circle r="6.5" style="fill: rgb(215, 241, 188);"/><text dy=".15em"/></g><g class="node" transform="translate(1055.311833319215, 311.5397749405749)"><circle r="6.5" style="fill: rgb(215, 241, 188);"/><text dy=".15em"/></g><g class="node" transform="translate(1042.3914666661244, 187.38887412654861)"><circle r="6.5" style="fill: rgb(215, 241, 188);"/><text dy=".15em"/></g><g class="node" transform="translate(1071.3294889254068, 248.06243838808555)"><circle r="6.5" style="fill: rgb(215, 241, 188);"/><text dy=".15em"/></g><g class="node" transform="translate(1036.576692423022, 332.6817770752967)"><circle r="6.5" style="fill: rgb(215, 241, 188);"/><text dy=".15em"/></g><g class="node" transform="translate(1009.3855258885293, 164.55888141516022)"><circle r="6.5" style="fill: rgb(215, 241, 188);"/><text dy=".15em"/></g><g class="node" transform="translate(1186.5368802178036, 498.2807763483409)"><circle r="5" style="fill: rgb(230, 247, 213);"/><text dy=".15em"/></g><g class="node" transform="translate(418.3367469092242, 223.05343529174186)"><circle r="5" style="fill: rgb(255, 239, 205);"/><text dy=".15em"/></g><g class="node" transform="translate(439.6585643010713, 216.99597631350494)"><circle r="5" style="fill: rgb(255, 239, 205);"/><text dy=".15em"/></g><g class="node" transform="translate(465.4115984415893, 206.35733066466983)"><circle r="5" style="fill: rgb(255, 239, 205);"/><text dy=".15em"/></g><g class="node" transform="translate(489.385905346328, 202.2668464166774)"><circle r="5" style="fill: rgb(255, 239, 205);"/><text dy=".15em"/></g><g class="node" transform="translate(1156.7398081701213, 336.7667717080074)"><circle r="5" style="fill: rgb(255, 239, 205);"/><text dy=".15em"/></g><g class="node" transform="translate(1171.7224641442156, 270.4604826677816)"><circle r="5" style="fill: rgb(255, 239, 205);"/><text dy=".15em"/></g><g class="node" transform="translate(1170.2691348654564, 305.5226169905504)"><circle r="5" style="fill: rgb(255, 239, 205);"/><text dy=".15em"/></g><g class="node" transform="translate(1059.7993473651156, 430.05193117596446)"><circle r="5" style="fill: rgb(246, 214, 214);"/><text dy=".15em"/></g><g class="node" transform="translate(1152.0666711503932, 180.92124848804502)"><circle r="5" style="fill: rgb(246, 214, 214);"/><text dy=".15em"/></g><g class="node" transform="translate(1131.3607395055628, 370.52031615148405)"><circle r="5" style="fill: rgb(255, 239, 205);"/><text dy=".15em"/></g><g class="node" transform="translate(1126.5077883069503, 141.45060406507298)"><circle r="5" style="fill: rgb(255, 239, 205);"/><text dy=".15em"/></g><g class="node" transform="translate(1164.5500066066631, 225.6143114879542)"><circle r="5" style="fill: rgb(246, 214, 214);"/><text dy=".15em"/></g><g class="node" transform="translate(1101.2811012582345, 404.12420151486765)"><circle r="5" style="fill: rgb(255, 239, 205);"/><text dy=".15em"/></g><g class="node" transform="translate(1091.248979047785, 115.79795994206029)"><circle r="5" style="fill: rgb(255, 239, 205);"/><text dy=".15em"/></g><g class="node" transform="translate(1065.5111886853163, 87.72916114717583)"><circle r="5" style="fill: rgb(255, 239, 205);"/><text dy=".15em"/></g><g class="node" transform="translate(544.0500538184455, 50.515229098835846)"><circle r="15.5" style="fill: rgb(219, 93, 93);"/><text dy=".15em"/></g><g class="node" transform="translate(396.49460779384293, 235.68873203142238)"><circle r="5" style="fill: rgb(255, 239, 205);"/><text dy=".15em"/></g></g>
  </svg>