<svg xmlns="http://www.w3.org/2000/svg" xmlns:xlink="http://www.w3.org/1999/xlink" viewBox="0 0 3838.08 854"><defs><style>.cls-1{fill:none;}.cls-2{fill:#282660;}.cls-3{clip-path:url(#clip-path);}.cls-4{opacity:0.6;}.cls-5{fill:url(#linear-gradient);}.cls-6{fill:#79e2f2;opacity:0.9;}.cls-7{fill:url(#linear-gradient-2);}.cls-8{fill:url(#linear-gradient-3);}.cls-9{fill:url(#linear-gradient-4);}.cls-10{fill:url(#linear-gradient-5);}.cls-11{fill:url(#linear-gradient-6);}.cls-12{fill:url(#linear-gradient-7);}.cls-13{fill:url(#linear-gradient-8);}.cls-14{fill:url(#linear-gradient-9);}.cls-15{fill:url(#linear-gradient-10);}.cls-16{fill:url(#linear-gradient-11);}.cls-17{fill:url(#linear-gradient-12);}.cls-18{fill:url(#linear-gradient-13);}.cls-19{fill:url(#linear-gradient-14);}.cls-20{fill:url(#linear-gradient-15);}.cls-21{clip-path:url(#clip-path-2);}</style><clipPath id="clip-path"><rect id="_Rectangle_" data-name="&lt;Rectangle&gt;" class="cls-1" x="-58.49" y="-11.34" width="3955.87" height="879.77" transform="translate(-0.67 3.02) rotate(-0.09)"/></clipPath><linearGradient id="linear-gradient" x1="3903.42" y1="665.48" x2="3854.07" y2="467.57" gradientTransform="matrix(-1, 0, 0, 1, 4451.12, -3.99)" gradientUnits="userSpaceOnUse"><stop offset="0" stop-color="#00a3bf" stop-opacity="0"/><stop offset="1" stop-color="#00a3bf"/></linearGradient><linearGradient id="linear-gradient-2" x1="2835.38" y1="448.27" x2="2786.03" y2="250.35" xlink:href="#linear-gradient"/><linearGradient id="linear-gradient-3" x1="1123.5" y1="665.48" x2="1074.16" y2="467.57" xlink:href="#linear-gradient"/><linearGradient id="linear-gradient-4" x1="1760.51" y1="561.39" x2="1711.16" y2="363.47" xlink:href="#linear-gradient"/><linearGradient id="linear-gradient-5" x1="1999.06" y1="499.46" x2="1901.45" y2="107.96" xlink:href="#linear-gradient"/><linearGradient id="linear-gradient-6" x1="1123.5" y1="769.85" x2="1074.16" y2="571.93" xlink:href="#linear-gradient"/><linearGradient id="linear-gradient-7" x1="2835.64" y1="717.46" x2="2786.29" y2="519.55" xlink:href="#linear-gradient"/><linearGradient id="linear-gradient-8" x1="2421.39" y1="831.47" x2="2344.47" y2="522.98" xlink:href="#linear-gradient"/><linearGradient id="linear-gradient-9" x1="908.67" y1="404.36" x2="859.33" y2="206.44" xlink:href="#linear-gradient"/><linearGradient id="linear-gradient-10" x1="1564.3" y1="885.52" x2="1486.99" y2="575.42" xlink:href="#linear-gradient"/><linearGradient id="linear-gradient-11" x1="3263.26" y1="606.79" x2="3213.92" y2="408.87" xlink:href="#linear-gradient"/><linearGradient id="linear-gradient-12" x1="3049.65" y1="983.87" x2="3000.31" y2="785.95" xlink:href="#linear-gradient"/><linearGradient id="linear-gradient-13" x1="3921.73" y1="921.31" x2="3835.76" y2="576.5" xlink:href="#linear-gradient"/><linearGradient id="linear-gradient-14" x1="3699.67" y1="362.14" x2="3628.16" y2="75.33" xlink:href="#linear-gradient"/><linearGradient id="linear-gradient-15" x1="4343.15" y1="563.51" x2="4267.97" y2="261.96" xlink:href="#linear-gradient"/><clipPath id="clip-path-2"><rect class="cls-1" x="4221.31" y="1092.73" width="3840" height="855.11"/></clipPath></defs><title>Artboard 1 copy 4</title><g id="BG"><rect class="cls-2" x="-58.49" y="-13.06" width="3955.87" height="879.77"/></g><g id="Layer_3" data-name="Layer 3"><g class="cls-3"><g class="cls-4"><polygon class="cls-5" points="466.18 647.18 680.68 699.24 680.35 490.09 465.85 438.04 466.18 647.18"/><polygon class="cls-6" points="680.39 385.6 466.54 438.18 680.56 490.09 894.41 437.51 680.39 385.6"/><polygon class="cls-7" points="1533.88 428.29 1748.38 480.34 1748.06 271.19 1533.55 219.15 1533.88 428.29"/><polygon class="cls-6" points="1748.09 166.3 1534.24 218.88 1748.26 270.79 1962.11 218.21 1748.09 166.3"/><polygon class="cls-8" points="3246.09 642.81 3460.6 694.86 3460.27 485.71 3245.76 433.66 3246.09 642.81"/><polygon class="cls-6" points="3460.31 381.23 3246.46 433.81 3460.47 485.71 3674.32 433.13 3460.31 381.23"/><polygon class="cls-9" points="2608.93 539.72 2823.43 591.77 2823.1 382.62 2608.6 330.57 2608.93 539.72"/><polygon class="cls-6" points="2821.92 278.14 2608.07 330.72 2822.09 382.63 3035.94 330.04 2821.92 278.14"/><polygon class="cls-10" points="2394.41 484.15 2608.92 536.2 2608.27 121.43 2393.76 69.38 2394.41 484.15"/><polygon class="cls-6" points="2608.3 16.94 2394.45 69.52 2608.47 121.43 2822.32 68.85 2608.3 16.94"/><polygon class="cls-11" points="3246.26 747.18 3460.76 799.23 3460.43 590.08 3245.93 538.03 3246.26 747.18"/><polygon class="cls-6" points="3460.47 485.59 3246.62 538.17 3460.64 590.08 3674.49 537.5 3460.47 485.59"/><polygon class="cls-6" points="3674.41 433.28 3460.56 485.86 3674.57 537.76 3888.42 485.18 3674.41 433.28"/><polygon class="cls-6" points="1747.44 435.9 1533.59 488.49 1747.61 540.39 1961.46 487.81 1747.44 435.9"/><polygon class="cls-12" points="1534.04 697.49 1748.55 749.53 1748.22 540.39 1533.71 488.34 1534.04 697.49"/><polygon class="cls-6" points="2175.48 435.23 1961.63 487.81 2175.64 539.72 2389.49 487.14 2175.48 435.23"/><polygon class="cls-13" points="1962.26 814.25 2176.77 866.3 2176.25 539.72 1961.75 487.67 1962.26 814.25"/><polygon class="cls-6" points="3674.73 119.76 3460.88 172.34 3674.89 224.25 3888.74 171.67 3674.73 119.76"/><polygon class="cls-14" points="3460.51 381.35 3675.02 433.39 3674.69 224.25 3460.18 172.2 3460.51 381.35"/><polygon class="cls-6" points="3033.66 486.27 2819.81 538.85 3033.82 590.75 3247.67 538.17 3033.66 486.27"/><polygon class="cls-15" points="2819.63 867.01 3034.14 919.06 3033.62 590.75 2819.11 538.71 2819.63 867.01"/><polygon class="cls-6" points="1319.64 325.9 1105.79 378.49 1319.81 430.39 1533.66 377.81 1319.64 325.9"/><polygon class="cls-16" points="1106.24 587.49 1320.75 639.53 1320.42 430.39 1105.91 378.34 1106.24 587.49"/><polygon class="cls-17" points="1320.45 964.23 1534.95 1016.28 1534.62 807.13 1320.12 755.08 1320.45 964.23"/><polygon class="cls-6" points="1534.83 807.01 1320.97 859.59 1534.99 911.5 1748.84 858.92 1534.83 807.01"/><polygon class="cls-6" points="1534.66 702.64 1320.81 755.23 1534.83 807.13 1748.68 754.55 1534.66 702.64"/><polygon class="cls-6" points="1748.76 754.69 1534.91 807.27 1748.92 859.18 1962.78 806.6 1748.76 754.69"/><polygon class="cls-6" points="-175.44 20.64 -389.29 73.22 -175.28 125.13 38.58 72.55 -175.44 20.64"/><polygon class="cls-6" points="-175.6 -83.72 -389.45 -31.14 -175.44 20.76 38.41 -31.82 -175.6 -83.72"/><polygon class="cls-6" points="38.5 -31.67 -175.35 20.91 38.66 72.81 252.51 20.23 38.5 -31.67"/><polygon class="cls-18" points="466.59 907.59 681.09 959.63 680.52 594.46 466.01 542.41 466.59 907.59"/><polygon class="cls-6" points="680.56 489.97 466.7 542.55 680.72 594.46 894.57 541.88 680.56 489.97"/><polygon class="cls-6" points="894.49 437.65 680.64 490.23 894.66 542.14 1108.51 489.56 894.49 437.65"/><polygon class="cls-6" points="894.6 -9.73 680.75 42.85 894.76 94.76 1108.61 42.18 894.6 -9.73"/><polygon class="cls-19" points="680.53 346.27 895.04 398.32 894.56 94.76 680.05 42.71 680.53 346.27"/><polygon class="cls-6" points="253.25 177.45 39.4 230.03 253.41 281.94 467.26 229.35 253.25 177.45"/><polygon class="cls-20" points="39.21 549.11 253.71 601.16 253.21 281.94 38.7 229.89 39.21 549.11"/></g></g></g></svg>