<?xml version="1.0" encoding="utf-8"?>
<!-- Generator: Adobe Illustrator 22.0.1, SVG Export Plug-In . SVG Version: 6.00 Build 0)  -->
<svg version="1.1" id="Layer_1" xmlns="http://www.w3.org/2000/svg" xmlns:xlink="http://www.w3.org/1999/xlink" x="0px" y="0px"
	 viewBox="0 0 3593.3 853.9" style="enable-background:new 0 0 3593.3 853.9;" xml:space="preserve">
<style type="text/css">
	.st0{fill:#172B4D;}
	.st1{clip-path:url(#SVGID_2_);}
	.st2{opacity:0.5;fill:url(#SVGID_3_);enable-background:new    ;}
	.st3{opacity:0.12;fill:url(#SVGID_4_);enable-background:new    ;}
	.st4{opacity:0.5;fill:url(#SVGID_5_);enable-background:new    ;}
	.st5{opacity:0.5;fill:url(#SVGID_6_);enable-background:new    ;}
	.st6{opacity:0.19;fill:url(#SVGID_7_);enable-background:new    ;}
	.st7{opacity:0.5;fill:url(#SVGID_8_);enable-background:new    ;}
	.st8{opacity:0.5;fill:url(#SVGID_9_);enable-background:new    ;}
	.st9{opacity:0.5;fill:url(#SVGID_10_);enable-background:new    ;}
	.st10{opacity:0.5;fill:url(#SVGID_11_);enable-background:new    ;}
	.st11{opacity:0.5;fill:url(#SVGID_12_);enable-background:new    ;}
	.st12{opacity:0.5;fill:url(#SVGID_13_);enable-background:new    ;}
	.st13{opacity:0.5;fill:#00A3BF;enable-background:new    ;}
	.st14{fill:#00A3BF;}
	.st15{fill:none;stroke:#00A3BF;stroke-width:14.98;stroke-miterlimit:10;}
	.st16{opacity:0.5;fill:url(#SVGID_14_);enable-background:new    ;}
	.st17{opacity:0.5;fill:url(#SVGID_15_);enable-background:new    ;}
	.st18{fill:none;stroke:#00A3BF;stroke-width:20;stroke-miterlimit:10;}
	.st19{opacity:0.5;fill:url(#SVGID_16_);enable-background:new    ;}
	.st20{opacity:0.5;fill:url(#SVGID_17_);enable-background:new    ;}
	.st21{opacity:0.5;fill:url(#SVGID_18_);enable-background:new    ;}
	.st22{fill:none;stroke:#00A3BF;stroke-width:10.84;stroke-miterlimit:10;}
</style>
<title>Artboard 31</title>
<g id="BG">
	<rect y="0" class="st0" width="3593.3" height="854"/>
</g>
<g id="Layer_3">
	<g>
		<defs>
			<rect id="SVGID_1_" y="0" width="3840" height="854"/>
		</defs>
		<clipPath id="SVGID_2_">
			<use xlink:href="#SVGID_1_"  style="overflow:visible;"/>
		</clipPath>
		<g class="st1">
			
				<linearGradient id="SVGID_3_" gradientUnits="userSpaceOnUse" x1="57.8296" y1="365.2045" x2="625.1805" y2="932.5455" gradientTransform="matrix(1 0 0 -1 0 856)">
				<stop  offset="0" style="stop-color:#00A3BF"/>
				<stop  offset="1" style="stop-color:#00A3BF;stop-opacity:0.3"/>
			</linearGradient>
			<path class="st2" d="M149.6-154.9h383.8c17.9,0,32.4,14.5,32.4,32.4v659.2c0,17.9-14.5,32.4-32.4,32.4H149.6
				c-17.9,0-32.4-14.5-32.4-32.4v-659.2C117.2-140.4,131.7-154.9,149.6-154.9z"/>
			
				<linearGradient id="SVGID_4_" gradientUnits="userSpaceOnUse" x1="599.0747" y1="186.3747" x2="1137.2354" y2="724.5453" gradientTransform="matrix(1 0 0 -1 0 856)">
				<stop  offset="0" style="stop-color:#00A3BF"/>
				<stop  offset="1" style="stop-color:#00A3BF;stop-opacity:0.3"/>
			</linearGradient>
			<path class="st3" d="M674.9,68.5h386.5c17.2,0,31.1,13.9,31.1,31.1v602c0,17.2-13.9,31.1-31.1,31.1H674.9
				c-17.2,0-31.1-13.9-31.1-31.1v-602C643.8,82.4,657.8,68.5,674.9,68.5z"/>
			
				<linearGradient id="SVGID_5_" gradientUnits="userSpaceOnUse" x1="1745.4792" y1="-346.9756" x2="2261.8708" y2="169.4156" gradientTransform="matrix(1 0 0 -1 0 856)">
				<stop  offset="0" style="stop-color:#00A3BF"/>
				<stop  offset="1" style="stop-color:#00A3BF;stop-opacity:0.3"/>
			</linearGradient>
			<path class="st4" d="M1809.4,635.1H2198c16.6,0,30,13.4,30,30v559.3c0,16.6-13.4,30-30,30h-388.6c-16.6,0-30-13.4-30-30V665.1
				C1779.4,648.6,1792.8,635.1,1809.4,635.1z"/>
			
				<linearGradient id="SVGID_6_" gradientUnits="userSpaceOnUse" x1="2799.7993" y1="-58.8058" x2="3316.1907" y2="457.5858" gradientTransform="matrix(1 0 0 -1 0 856)">
				<stop  offset="0" style="stop-color:#00A3BF"/>
				<stop  offset="1" style="stop-color:#00A3BF;stop-opacity:0.3"/>
			</linearGradient>
			<path class="st5" d="M2863.7,347h388.6c16.6,0,30,13.4,30,30v559.3c0,16.6-13.4,30-30,30h-388.6c-16.6,0-30-13.4-30-30V377
				C2833.7,360.4,2847.1,347,2863.7,347z"/>
			
				<linearGradient id="SVGID_7_" gradientUnits="userSpaceOnUse" x1="2026.3593" y1="423.0643" x2="2542.7507" y2="939.4557" gradientTransform="matrix(1 0 0 -1 0 856)">
				<stop  offset="0" style="stop-color:#00A3BF"/>
				<stop  offset="1" style="stop-color:#00A3BF;stop-opacity:0.3"/>
			</linearGradient>
			<path class="st6" d="M2090.2-134.9h388.6c16.6,0,30,13.4,30,30v559.3c0,16.6-13.4,30-30,30h-388.6c-16.6,0-30-13.4-30-30v-559.3
				C2060.2-121.5,2073.7-134.9,2090.2-134.9z"/>
			
				<linearGradient id="SVGID_8_" gradientUnits="userSpaceOnUse" x1="2613.0427" y1="456.2829" x2="2925.2271" y2="768.4671" gradientTransform="matrix(1 0 0 -1 0 856)">
				<stop  offset="0" style="stop-color:#00A3BF"/>
				<stop  offset="1" style="stop-color:#00A3BF;stop-opacity:0.3"/>
			</linearGradient>
			<path class="st7" d="M2551.4,157.4h435.4c11,0,20,9,20,20v132.3c0,11-9,20-20,20h-435.4c-11,0-20-9-20-20V177.4
				C2531.4,166.4,2540.4,157.4,2551.4,157.4z"/>
			
				<linearGradient id="SVGID_9_" gradientUnits="userSpaceOnUse" x1="2613.0427" y1="211.4329" x2="2925.2271" y2="523.6171" gradientTransform="matrix(1 0 0 -1 0 856)">
				<stop  offset="0" style="stop-color:#00A3BF"/>
				<stop  offset="1" style="stop-color:#00A3BF;stop-opacity:0.3"/>
			</linearGradient>
			<path class="st8" d="M2551.4,402.3h435.4c11,0,20,9,20,20v132.4c0,11-9,20-20,20h-435.4c-11,0-20-9-20-20V422.3
				C2531.4,411.3,2540.4,402.3,2551.4,402.3z"/>
			
				<linearGradient id="SVGID_10_" gradientUnits="userSpaceOnUse" x1="3149.3091" y1="537.9141" x2="3461.5007" y2="850.0958" gradientTransform="matrix(1 0 0 -1 0 856)">
				<stop  offset="0" style="stop-color:#00A3BF"/>
				<stop  offset="1" style="stop-color:#00A3BF;stop-opacity:0.3"/>
			</linearGradient>
			<path class="st9" d="M3087.7,75.8h435.4c11,0,20,9,20,20v132.4c0,11-9,20-20,20h-435.4c-11,0-20-9-20-20V95.8
				C3067.7,84.8,3076.6,75.8,3087.7,75.8z"/>
			
				<linearGradient id="SVGID_11_" gradientUnits="userSpaceOnUse" x1="2038.3428" y1="-55.7771" x2="2350.5271" y2="256.4071" gradientTransform="matrix(1 0 0 -1 0 856)">
				<stop  offset="0" style="stop-color:#00A3BF"/>
				<stop  offset="1" style="stop-color:#00A3BF;stop-opacity:0.3"/>
			</linearGradient>
			<path class="st10" d="M1976.7,669.5h435.4c11,0,20,9,20,20v132.3c0,11-9,20-20,20h-435.4c-11,0-20-9-20-20V689.5
				C1956.7,678.5,1965.7,669.5,1976.7,669.5z"/>
			
				<linearGradient id="SVGID_12_" gradientUnits="userSpaceOnUse" x1="823.0829" y1="449.3329" x2="1135.2671" y2="761.5172" gradientTransform="matrix(1 0 0 -1 0 856)">
				<stop  offset="0" style="stop-color:#00A3BF"/>
				<stop  offset="1" style="stop-color:#00A3BF;stop-opacity:0.3"/>
			</linearGradient>
			<path class="st11" d="M761.5,164.4h435.5c11,0,20,9,20,20v132.4c0,11-9,20-20,20H761.5c-11,0-20-9-20-20V184.4
				C741.5,173.4,750.4,164.4,761.5,164.4z"/>
			
				<linearGradient id="SVGID_13_" gradientUnits="userSpaceOnUse" x1="121.8029" y1="390.1129" x2="433.9871" y2="702.2971" gradientTransform="matrix(1 0 0 -1 0 856)">
				<stop  offset="0" style="stop-color:#00A3BF"/>
				<stop  offset="1" style="stop-color:#00A3BF;stop-opacity:0.3"/>
			</linearGradient>
			<path class="st12" d="M60.2,223.6h435.5c11,0,20,9,20,20V376c0,11-9,20-20,20H60.2c-11,0-20-9-20-20V243.6
				C40.2,232.6,49.1,223.6,60.2,223.6z"/>
			<circle class="st13" cx="2638.5" cy="235.9" r="51.5"/>
			<circle class="st13" cx="1856.5" cy="732.5" r="51.5"/>
			<circle class="st13" cx="1587.2" cy="119.1" r="51.5"/>
			<circle class="st13" cx="3100.7" cy="854" r="68.7"/>
			<circle class="st13" cx="741.5" cy="330.4" r="51.5"/>
			<circle class="st14" cx="180.9" cy="309.8" r="51.5"/>
			<line class="st15" x1="2725.1" y1="470" x2="2934.1" y2="470"/>
			<line class="st15" x1="2725.1" y1="511.1" x2="2934.1" y2="511.1"/>
			
				<linearGradient id="SVGID_14_" gradientUnits="userSpaceOnUse" x1="1243.0029" y1="-93.9971" x2="1555.1871" y2="218.1872" gradientTransform="matrix(1 0 0 -1 0 856)">
				<stop  offset="0" style="stop-color:#00A3BF"/>
				<stop  offset="1" style="stop-color:#00A3BF;stop-opacity:0.3"/>
			</linearGradient>
			<path class="st16" d="M1181.4,707.7h435.5c11,0,20,9,20,20v132.3c0,11-9,20-20,20h-435.5c-11,0-20-9-20-20V727.7
				C1161.4,716.7,1170.3,707.7,1181.4,707.7z"/>
			<line class="st15" x1="1355.1" y1="775.4" x2="1564" y2="775.4"/>
			<line class="st15" x1="1355.1" y1="816.6" x2="1564" y2="816.6"/>
			
				<linearGradient id="SVGID_15_" gradientUnits="userSpaceOnUse" x1="1582.783" y1="585.3129" x2="1894.9672" y2="897.4971" gradientTransform="matrix(1 0 0 -1 0 856)">
				<stop  offset="0" style="stop-color:#00A3BF"/>
				<stop  offset="1" style="stop-color:#00A3BF;stop-opacity:0.3"/>
			</linearGradient>
			<path class="st17" d="M1521.2,28.4h435.5c11,0,20,9,20,20v132.4c0,11-9,20-20,20h-435.5c-11,0-20-9-20-20V48.4
				C1501.2,37.4,1510.1,28.4,1521.2,28.4z"/>
			<line class="st15" x1="1694.9" y1="96.1" x2="1903.8" y2="96.1"/>
			<line class="st15" x1="1694.9" y1="137.2" x2="1903.8" y2="137.2"/>
			<line class="st15" x1="2180.8" y1="735.1" x2="2389.7" y2="735.1"/>
			<line class="st15" x1="2180.8" y1="776.3" x2="2389.7" y2="776.3"/>
			<line class="st18" x1="3142.8" y1="138.4" x2="3421.8" y2="138.4"/>
			
				<linearGradient id="SVGID_16_" gradientUnits="userSpaceOnUse" x1="3149.3091" y1="77.1541" x2="3461.5007" y2="389.3358" gradientTransform="matrix(1 0 0 -1 0 856)">
				<stop  offset="0" style="stop-color:#00A3BF"/>
				<stop  offset="1" style="stop-color:#00A3BF;stop-opacity:0.3"/>
			</linearGradient>
			<path class="st19" d="M3087.7,536.6h435.4c11,0,20,9,20,20v132.4c0,11-9,20-20,20h-435.4c-11,0-20-9-20-20V556.6
				C3067.7,545.5,3076.6,536.6,3087.7,536.6z"/>
			<line class="st18" x1="3142.8" y1="599.1" x2="3421.8" y2="599.1"/>
			
				<linearGradient id="SVGID_17_" gradientUnits="userSpaceOnUse" x1="-76.7772" y1="-98.9672" x2="235.4072" y2="213.2171" gradientTransform="matrix(1 0 0 -1 0 856)">
				<stop  offset="0" style="stop-color:#00A3BF"/>
				<stop  offset="1" style="stop-color:#00A3BF;stop-opacity:0.3"/>
			</linearGradient>
			<path class="st20" d="M-138.4,712.7H297c11,0,20,9,20,20v132.4c0,11-9,20-20,20h-435.5c-11,0-20-9-20-20V732.7
				C-158.4,721.7-149.5,712.7-138.4,712.7z"/>
			<line class="st18" x1="-83.2" y1="775.2" x2="195.7" y2="775.2"/>
			<line class="st15" x1="816.6" y1="230" x2="1141.8" y2="230"/>
			<line class="st15" x1="816.6" y1="271.1" x2="1008.6" y2="271.1"/>
			<line class="st15" x1="277.9" y1="289.2" x2="603.1" y2="289.2"/>
			<line class="st15" x1="277.9" y1="330.4" x2="440.5" y2="330.4"/>
			
				<linearGradient id="SVGID_18_" gradientUnits="userSpaceOnUse" x1="453.4129" y1="81.7129" x2="765.5971" y2="393.8971" gradientTransform="matrix(1 0 0 -1 0 856)">
				<stop  offset="0" style="stop-color:#00A3BF"/>
				<stop  offset="1" style="stop-color:#00A3BF;stop-opacity:0.3"/>
			</linearGradient>
			<path class="st21" d="M391.8,532h435.4c11,0,20,9,20,20v132.3c0,11-9,20-20,20H391.8c-11,0-20-9-20-20V552
				C371.8,541,380.7,532,391.8,532z"/>
			<circle class="st14" cx="457.4" cy="619.1" r="45.1"/>
			<line class="st22" x1="540.4" y1="607.2" x2="775.7" y2="607.2"/>
			<line class="st22" x1="540.4" y1="637" x2="658.1" y2="637"/>
		</g>
	</g>
</g>
</svg>
