<svg xmlns="http://www.w3.org/2000/svg" xmlns:xlink="http://www.w3.org/1999/xlink" width="180" height="180" version="1.1" viewBox="0 0 180 180"><title>checkbox_180px</title><desc>Created with Sketch.</desc><defs><rect id="path-1" width="180" height="180" x="0" y="0"/><path id="path-3" d="M19,3 L5,3 C3.89,3 3,3.9 3,5 L3,19 C3,20.1 3.89,21 5,21 L19,21 C20.11,21 21,20.1 21,19 L21,5 C21,3.9 20.11,3 19,3 Z M10,17 L5,12 L6.41,10.59 L10,14.17 L17.59,6.58 L19,8 L10,17 Z"/><path id="path-5" d="M19,5 L19,19 L5,19 L5,5 L19,5 Z M19,3 L5,3 C3.9,3 3,3.9 3,5 L3,19 C3,20.1 3.9,21 5,21 L19,21 C20.1,21 21,20.1 21,19 L21,5 C21,3.9 20.1,3 19,3 Z"/><path id="path-7" d="M19,5 L19,19 L5,19 L5,5 L19,5 Z M19,3 L5,3 C3.9,3 3,3.9 3,5 L3,19 C3,20.1 3.9,21 5,21 L19,21 C20.1,21 21,20.1 21,19 L21,5 C21,3.9 20.1,3 19,3 Z"/><path id="path-9" d="M19,5 L19,19 L5,19 L5,5 L19,5 Z M19,3 L5,3 C3.9,3 3,3.9 3,5 L3,19 C3,20.1 3.9,21 5,21 L19,21 C20.1,21 21,20.1 21,19 L21,5 C21,3.9 20.1,3 19,3 Z"/></defs><g id="checkbox_180px-" fill="none" fill-rule="evenodd" stroke="none" stroke-width="1"><g id="Dialog-/-Header-Copy-19"><mask id="mask-2" fill="#fff"><use xlink:href="#path-1"/></mask><use id="Mask" fill="#FAFAFA" xlink:href="#path-1"/><g id="Selection-Control-/-Checkbox-/-On-/-Enabled" mask="url(#mask-2)"><g id="Icon-/-Toggle-/-Checkbox-/-Fill"><g transform="translate(78.000000, 27.000000)"><mask id="mask-4" fill="#fff"><use xlink:href="#path-3"/></mask><g id="✱-/-Color-/-Icons-/-Primary-or-Secondary" fill="#212121" fill-rule="evenodd" mask="url(#mask-4)"><g id="✱-/-Color-/-Primary-/-Main"><g id="✱-/-Color-/-Primary-/-900"><rect id="Rectangle-13" width="24" height="24" x="0" y="0"/></g></g></g></g></g></g><g id="Selection-Control-/-Checkbox-/-Off-/-Enabled" mask="url(#mask-2)"><g id="Icon-/-Toggle-/-Checkbox-Outline-/-Fill"><g transform="translate(78.000000, 61.000000)"><mask id="mask-6" fill="#fff"><use xlink:href="#path-5"/></mask><g id="✱-/-Color-/-Icons-/-Black-/-Inactive" fill="#000" fill-rule="evenodd" mask="url(#mask-6)" opacity=".54"><rect id="Rectangle" width="24" height="24" x="0" y="0"/></g></g></g></g><g id="Selection-Control-/-Checkbox-/-Off-/-Enabled" mask="url(#mask-2)"><g id="Icon-/-Toggle-/-Checkbox-Outline-/-Fill"><g transform="translate(78.000000, 95.000000)"><mask id="mask-8" fill="#fff"><use xlink:href="#path-7"/></mask><g id="✱-/-Color-/-Icons-/-Black-/-Inactive" fill="#000" fill-rule="evenodd" mask="url(#mask-8)" opacity=".54"><rect id="Rectangle" width="24" height="24" x="0" y="0"/></g></g></g></g><g id="Selection-Control-/-Checkbox-/-Off-/-Enabled" mask="url(#mask-2)"><g id="Icon-/-Toggle-/-Checkbox-Outline-/-Fill"><g transform="translate(78.000000, 129.000000)"><mask id="mask-10" fill="#fff"><use xlink:href="#path-9"/></mask><g id="✱-/-Color-/-Icons-/-Black-/-Inactive" fill="#000" fill-rule="evenodd" mask="url(#mask-10)" opacity=".54"><rect id="Rectangle" width="24" height="24" x="0" y="0"/></g></g></g></g></g></g></svg>