<svg xmlns="http://www.w3.org/2000/svg" xmlns:xlink="http://www.w3.org/1999/xlink" width="180" height="180" version="1.1" viewBox="0 0 180 180"><title>radio_180px</title><desc>Created with Sketch.</desc><defs><polygon id="path-1" points="0 0 180 0 180 190 0 190"/><path id="path-3" d="M12,2 C6.48,2 2,6.48 2,12 C2,17.52 6.48,22 12,22 C17.52,22 22,17.52 22,12 C22,6.48 17.52,2 12,2 Z M12,20 C7.58,20 4,16.42 4,12 C4,7.58 7.58,4 12,4 C16.42,4 20,7.58 20,12 C20,16.42 16.42,20 12,20 Z M12,17 C14.7614237,17 17,14.7614237 17,12 C17,9.23857625 14.7614237,7 12,7 C9.23857625,7 7,9.23857625 7,12 C7,14.7614237 9.23857625,17 12,17 Z"/><path id="path-5" d="M12,2 C6.48,2 2,6.48 2,12 C2,17.52 6.48,22 12,22 C17.52,22 22,17.52 22,12 C22,6.48 17.52,2 12,2 Z M12,20 C7.58,20 4,16.42 4,12 C4,7.58 7.58,4 12,4 C16.42,4 20,7.58 20,12 C20,16.42 16.42,20 12,20 Z M12,17 C14.7614237,17 17,14.7614237 17,12 C17,9.23857625 14.7614237,7 12,7 C9.23857625,7 7,9.23857625 7,12 C7,14.7614237 9.23857625,17 12,17 Z"/><path id="path-7" d="M12,2 C6.48,2 2,6.48 2,12 C2,17.52 6.48,22 12,22 C17.52,22 22,17.52 22,12 C22,6.48 17.52,2 12,2 Z M12,20 C7.58,20 4,16.42 4,12 C4,7.58 7.58,4 12,4 C16.42,4 20,7.58 20,12 C20,16.42 16.42,20 12,20 Z"/><path id="path-9" d="M12,2 C6.48,2 2,6.48 2,12 C2,17.52 6.48,22 12,22 C17.52,22 22,17.52 22,12 C22,6.48 17.52,2 12,2 Z M12,20 C7.58,20 4,16.42 4,12 C4,7.58 7.58,4 12,4 C16.42,4 20,7.58 20,12 C20,16.42 16.42,20 12,20 Z"/></defs><g id="radio_180px" fill="none" fill-rule="evenodd" stroke="none" stroke-width="1"><mask id="mask-2" fill="#fff"><use xlink:href="#path-1"/></mask><use id="Mask" fill="#FAFAFA" xlink:href="#path-1"/><g id="Selection-Control-/-Radio-/-On-/-Enabled" mask="url(#mask-2)"><g id="Icon-/-Toggle-/-Radio-Checked-/-Fill"><g transform="translate(78.000000, 27.000000)"><mask id="mask-4" fill="#fff"><use xlink:href="#path-3"/></mask><g id="✱-/-Color-/-Icons-/-Black-/-Active" fill="#000" fill-rule="evenodd" mask="url(#mask-4)" opacity=".87"><rect id="Rectangle-13" width="24" height="24" x="0" y="0"/></g></g></g></g><g id="Selection-Control-/-Radio-/-On-/-Enabled" mask="url(#mask-2)"><g id="Icon-/-Toggle-/-Radio-Checked-/-Fill"><g transform="translate(78.000000, 95.000000)"><mask id="mask-6" fill="#fff"><use xlink:href="#path-5"/></mask><g id="✱-/-Color-/-Icons-/-Black-/-Active" fill="#000" fill-rule="evenodd" mask="url(#mask-6)" opacity=".87"><rect id="Rectangle-13" width="24" height="24" x="0" y="0"/></g></g></g></g><g id="Selection-Control-/-Radio-/-Off-/-Enabled" mask="url(#mask-2)"><g id="Icon-/-Toggle-/-Radio-Unchecked-/-Fill"><g transform="translate(78.000000, 61.000000)"><mask id="mask-8" fill="#fff"><use xlink:href="#path-7"/></mask><g id="✱-/-Color-/-Icons-/-Black-/-Inactive" fill="#000" fill-rule="evenodd" mask="url(#mask-8)" opacity=".54"><rect id="Rectangle" width="24" height="24" x="0" y="0"/></g></g></g></g><g id="Selection-Control-/-Radio-/-Off-/-Enabled" mask="url(#mask-2)"><g id="Icon-/-Toggle-/-Radio-Unchecked-/-Fill"><g transform="translate(78.000000, 129.000000)"><mask id="mask-10" fill="#fff"><use xlink:href="#path-9"/></mask><g id="✱-/-Color-/-Icons-/-Black-/-Inactive" fill="#000" fill-rule="evenodd" mask="url(#mask-10)" opacity=".54"><rect id="Rectangle" width="24" height="24" x="0" y="0"/></g></g></g></g></g></svg>