<svg xmlns="http://www.w3.org/2000/svg" xmlns:xlink="http://www.w3.org/1999/xlink" width="180" height="180" version="1.1" viewBox="0 0 180 180"><title>switch_180px</title><desc>Created with Sketch.</desc><defs><rect id="path-1" width="180" height="180" x="0" y="0"/><rect id="path-3" width="34" height="14" x="3" y="5" rx="7"/><rect id="path-5" width="20" height="20" x="0" y="0" rx="10"/><filter id="filter-7" width="190%" height="190%" x="-45%" y="-30%" filterUnits="objectBoundingBox"><feOffset dx="0" dy="1" in="SourceAlpha" result="shadowOffsetOuter1"/><feGaussianBlur in="shadowOffsetOuter1" result="shadowBlurOuter1" stdDeviation="1.5"/><feColorMatrix in="shadowBlurOuter1" result="shadowMatrixOuter1" type="matrix" values="0 0 0 0 0 0 0 0 0 0 0 0 0 0 0 0 0 0 0.2 0"/><feOffset dx="0" dy="2" in="SourceAlpha" result="shadowOffsetOuter2"/><feGaussianBlur in="shadowOffsetOuter2" result="shadowBlurOuter2" stdDeviation="1"/><feColorMatrix in="shadowBlurOuter2" result="shadowMatrixOuter2" type="matrix" values="0 0 0 0 0 0 0 0 0 0 0 0 0 0 0 0 0 0 0.12 0"/><feOffset dx="0" dy="0" in="SourceAlpha" result="shadowOffsetOuter3"/><feGaussianBlur in="shadowOffsetOuter3" result="shadowBlurOuter3" stdDeviation="1"/><feColorMatrix in="shadowBlurOuter3" result="shadowMatrixOuter3" type="matrix" values="0 0 0 0 0 0 0 0 0 0 0 0 0 0 0 0 0 0 0.14 0"/><feMerge><feMergeNode in="shadowMatrixOuter1"/><feMergeNode in="shadowMatrixOuter2"/><feMergeNode in="shadowMatrixOuter3"/></feMerge></filter><rect id="path-8" width="34" height="14" x="3" y="5" rx="7"/><rect id="path-10" width="20" height="20" x="0" y="0" rx="10"/><filter id="filter-12" width="190%" height="190%" x="-45%" y="-30%" filterUnits="objectBoundingBox"><feOffset dx="0" dy="1" in="SourceAlpha" result="shadowOffsetOuter1"/><feGaussianBlur in="shadowOffsetOuter1" result="shadowBlurOuter1" stdDeviation="1.5"/><feColorMatrix in="shadowBlurOuter1" result="shadowMatrixOuter1" type="matrix" values="0 0 0 0 0 0 0 0 0 0 0 0 0 0 0 0 0 0 0.2 0"/><feOffset dx="0" dy="2" in="SourceAlpha" result="shadowOffsetOuter2"/><feGaussianBlur in="shadowOffsetOuter2" result="shadowBlurOuter2" stdDeviation="1"/><feColorMatrix in="shadowBlurOuter2" result="shadowMatrixOuter2" type="matrix" values="0 0 0 0 0 0 0 0 0 0 0 0 0 0 0 0 0 0 0.12 0"/><feOffset dx="0" dy="0" in="SourceAlpha" result="shadowOffsetOuter3"/><feGaussianBlur in="shadowOffsetOuter3" result="shadowBlurOuter3" stdDeviation="1"/><feColorMatrix in="shadowBlurOuter3" result="shadowMatrixOuter3" type="matrix" values="0 0 0 0 0 0 0 0 0 0 0 0 0 0 0 0 0 0 0.14 0"/><feMerge><feMergeNode in="shadowMatrixOuter1"/><feMergeNode in="shadowMatrixOuter2"/><feMergeNode in="shadowMatrixOuter3"/></feMerge></filter><path id="path-13" d="M12,2 C6.48,2 2,6.48 2,12 C2,17.52 6.48,22 12,22 C17.52,22 22,17.52 22,12 C22,6.48 17.52,2 12,2 Z M12,20 C7.58,20 4,16.42 4,12 C4,7.58 7.58,4 12,4 C16.42,4 20,7.58 20,12 C20,16.42 16.42,20 12,20 Z M12,17 C14.7614237,17 17,14.7614237 17,12 C17,9.23857625 14.7614237,7 12,7 C9.23857625,7 7,9.23857625 7,12 C7,14.7614237 9.23857625,17 12,17 Z"/><path id="path-15" d="M12,2 C6.48,2 2,6.48 2,12 C2,17.52 6.48,22 12,22 C17.52,22 22,17.52 22,12 C22,6.48 17.52,2 12,2 Z M12,20 C7.58,20 4,16.42 4,12 C4,7.58 7.58,4 12,4 C16.42,4 20,7.58 20,12 C20,16.42 16.42,20 12,20 Z"/><path id="path-17" d="M19,3 L5,3 C3.89,3 3,3.9 3,5 L3,19 C3,20.1 3.89,21 5,21 L19,21 C20.11,21 21,20.1 21,19 L21,5 C21,3.9 20.11,3 19,3 Z M10,17 L5,12 L6.41,10.59 L10,14.17 L17.59,6.58 L19,8 L10,17 Z"/><path id="path-19" d="M19,5 L19,19 L5,19 L5,5 L19,5 Z M19,3 L5,3 C3.9,3 3,3.9 3,5 L3,19 C3,20.1 3.9,21 5,21 L19,21 C20.1,21 21,20.1 21,19 L21,5 C21,3.9 20.1,3 19,3 Z"/></defs><g id="switch_180px" fill="none" fill-rule="evenodd" stroke="none" stroke-width="1"><g id="Group"><mask id="mask-2" fill="#fff"><use xlink:href="#path-1"/></mask><use id="Mask" fill="#FAFAFA" xlink:href="#path-1"/><g id="Selection-Control-/-Switch-/-On-/-Enabled" mask="url(#mask-2)"><g transform="translate(70.000000, 50.000000)"><g id="Selection-Control-/-Switch-/-Elements-/-Track"><mask id="mask-4" fill="#fff"><use xlink:href="#path-3"/></mask><use id="Surface" fill="#FAFAFA" fill-rule="evenodd" xlink:href="#path-3"/><g id="✱-/-Color-/-Icons-/-Black-/-Active" fill="#000" fill-rule="evenodd" mask="url(#mask-4)" opacity=".38"><rect id="Rectangle-13" width="40" height="24" x="0" y="0" opacity=".87"/></g></g><g id="Selection-Control-/-Switch-/-Elements-/-Thumb" transform="translate(18.000000, 2.000000)"><mask id="mask-6" fill="#fff"><use xlink:href="#path-5"/></mask><g id="Surface"><use fill="#000" fill-opacity="1" filter="url(#filter-7)" xlink:href="#path-5"/><use fill="#FAFAFA" fill-rule="evenodd" xlink:href="#path-5"/></g><g id="✱-/-Color-/-Icons-/-Black-/-Active" fill="#000" fill-rule="evenodd" mask="url(#mask-6)" opacity=".87"><rect id="Rectangle-13" width="20" height="20" x="0" y="0"/></g></g></g></g><g id="Selection-Control-/-Switch-/-Off-/-Enabled" mask="url(#mask-2)"><g transform="translate(70.000000, 106.000000)"><g id="Selection-Control-/-Switch-/-Elements-/-Track"><mask id="mask-9" fill="#fff"><use xlink:href="#path-8"/></mask><use id="Surface" fill="#FAFAFA" fill-rule="evenodd" xlink:href="#path-8"/><g id="✱-/-Color-/-Icons-/-Black-/-Inactive" fill="#000" fill-rule="evenodd" mask="url(#mask-9)" opacity=".38"><rect id="Rectangle" width="40" height="24" x="0" y="0" opacity=".54"/></g></g><g id="Selection-Control-/-Switch-/-Elements-/-Thumb" transform="translate(2.000000, 2.000000)"><mask id="mask-11" fill="#fff"><use xlink:href="#path-10"/></mask><g id="Surface"><use fill="#000" fill-opacity="1" filter="url(#filter-12)" xlink:href="#path-10"/><use fill="#FAFAFA" fill-rule="evenodd" xlink:href="#path-10"/></g><g id="✱-/-Color-/-Surface-/-Light" fill="#FAFAFA" fill-rule="evenodd" mask="url(#mask-11)"><rect id="Rectangle-13" width="20" height="20" x="0" y="0"/></g></g></g></g></g></g></svg>