<svg xmlns="http://www.w3.org/2000/svg" xmlns:xlink="http://www.w3.org/1999/xlink" width="180" height="180" version="1.1" viewBox="0 0 180 180"><title>top_app_bar_180px</title><desc>Created with Sketch.</desc><defs><rect id="path-1" width="180" height="180" x="0" y="0"/><rect id="path-3" width="288" height="102" x="0" y="0"/><path id="path-5" d="M2.4,14.4 L16.8,14.4 L16.8,12.8 L2.4,12.8 L2.4,14.4 Z M2.4,10.4 L16.8,10.4 L16.8,8.8 L2.4,8.8 L2.4,10.4 Z M2.4,4.8 L2.4,6.4 L16.8,6.4 L16.8,4.8 L2.4,4.8 Z"/></defs><g id="top_app_bar_180px" fill="none" fill-rule="evenodd" stroke="none" stroke-width="1"><mask id="mask-2" fill="#fff"><use xlink:href="#path-1"/></mask><use id="Mask" fill="#FAFAFA" xlink:href="#path-1"/><g id="Dialog-/-Header-Copy-2" mask="url(#mask-2)"><g id="Group-3"><g transform="translate(30.000000, 0.000000)"><rect id="Rectangle" width="150" height="188" x="0" y="0" fill="#F5F5F5"/><g id="App-Bar-/-Top-/-Extended-/-Flat"><mask id="mask-4" fill="#fff"><use xlink:href="#path-3"/></mask><use id="Surface" fill="#FAFAFA" xlink:href="#path-3"/><g id="✱-/-Color-/-Primary-/-Main" fill="#212121" mask="url(#mask-4)"><g id="✱-/-Color-/-Primary-/-900"><g><rect id="Rectangle-13" width="288" height="102" x="0" y="0"/></g></g></g><g id="Text-/-H6-/-P---Dark-/-Left" font-family="Roboto-Medium, Roboto" font-size="16" font-weight="400" letter-spacing=".12" mask="url(#mask-4)"><g id="Headline-6"><text transform="translate(47.000000, 66.000000)"><tspan x="0" y="15" fill="#FFF">Top App Bar</tspan></text></g></g><g id="Icons-" mask="url(#mask-4)"><g id="Icon-1"><g transform="translate(12.800000, 12.750000)"><g id="Icon-/-Menu-/-Fill"><mask id="mask-6" fill="#fff"><use xlink:href="#path-5"/></mask><g id="✱-/-Color-/-Icons-/-White-/-100%" fill="#FFF" fill-rule="evenodd" mask="url(#mask-6)"><rect id="Rectangle-13" width="18.953" height="18.953" x="0" y="0"/></g></g></g></g></g></g></g></g></g></g></svg>