<?xml version="1.0" encoding="utf-8"?>
<!-- Generator: Adobe Illustrator 22.0.1, SVG Export Plug-In . SVG Version: 6.00 Build 0)  -->
<svg version="1.1" id="Layer_1" xmlns="http://www.w3.org/2000/svg" xmlns:xlink="http://www.w3.org/1999/xlink" x="0px" y="0px"
	 viewBox="0 0 3588.2 854" style="enable-background:new 0 0 3588.2 854;" xml:space="preserve">
<style type="text/css">
	.st0{clip-path:url(#SVGID_2_);}
	.st1{fill:#172B4D;}
	.st2{opacity:0.7;}
	.st3{clip-path:url(#SVGID_4_);}
	.st4{opacity:0.6;fill:url(#_Path__1_);enable-background:new    ;}
	.st5{opacity:0.6;fill:url(#SVGID_5_);enable-background:new    ;}
	.st6{fill:url(#_Clipping_Path__1_);}
	.st7{fill:none;stroke:#2684FF;stroke-width:10.63;stroke-miterlimit:10;}
	
		.st8{opacity:0.29;fill:none;stroke:url(#SVGID_6_);stroke-width:17.04;stroke-linecap:round;stroke-miterlimit:10;enable-background:new    ;}
	
		.st9{opacity:0.29;fill:none;stroke:url(#SVGID_7_);stroke-width:17.04;stroke-linecap:round;stroke-miterlimit:10;enable-background:new    ;}
	
		.st10{opacity:0.29;fill:none;stroke:url(#SVGID_8_);stroke-width:17.04;stroke-linecap:round;stroke-miterlimit:10;enable-background:new    ;}
	
		.st11{opacity:0.29;fill:none;stroke:url(#SVGID_9_);stroke-width:17.04;stroke-linecap:round;stroke-miterlimit:10;enable-background:new    ;}
	
		.st12{opacity:0.29;fill:none;stroke:url(#SVGID_10_);stroke-width:17.04;stroke-linecap:round;stroke-miterlimit:10;enable-background:new    ;}
	
		.st13{opacity:0.29;fill:none;stroke:url(#SVGID_11_);stroke-width:17.04;stroke-linecap:round;stroke-miterlimit:10;enable-background:new    ;}
	
		.st14{opacity:0.29;fill:none;stroke:url(#SVGID_12_);stroke-width:17.04;stroke-linecap:round;stroke-miterlimit:10;enable-background:new    ;}
	
		.st15{opacity:0.29;fill:none;stroke:url(#SVGID_13_);stroke-width:17.04;stroke-linecap:round;stroke-miterlimit:10;enable-background:new    ;}
	
		.st16{opacity:0.29;fill:none;stroke:url(#SVGID_14_);stroke-width:17.04;stroke-linecap:round;stroke-miterlimit:10;enable-background:new    ;}
	
		.st17{opacity:0.29;fill:none;stroke:url(#SVGID_15_);stroke-width:17.04;stroke-linecap:round;stroke-miterlimit:10;enable-background:new    ;}
	
		.st18{opacity:0.29;fill:none;stroke:url(#SVGID_16_);stroke-width:17.04;stroke-linecap:round;stroke-miterlimit:10;enable-background:new    ;}
	
		.st19{opacity:0.29;fill:none;stroke:url(#SVGID_17_);stroke-width:17.04;stroke-linecap:round;stroke-miterlimit:10;enable-background:new    ;}
	.st20{opacity:0.6;fill:url(#SVGID_18_);enable-background:new    ;}
	.st21{fill:url(#_Path_2_1_);}
	.st22{fill:none;stroke:#0065FF;stroke-width:10.63;stroke-miterlimit:10;}
	.st23{opacity:0.6;fill:url(#SVGID_19_);enable-background:new    ;}
	.st24{fill:url(#_Path_3_1_);}
	
		.st25{opacity:0.29;fill:none;stroke:url(#SVGID_20_);stroke-width:17.04;stroke-linecap:round;stroke-miterlimit:10;enable-background:new    ;}
	.st26{opacity:0.55;}
	.st27{opacity:0.6;fill:url(#SVGID_21_);enable-background:new    ;}
	.st28{fill:url(#SVGID_22_);}
	.st29{fill:#2684FF;}
	.st30{fill:#4C9AFF;}
	.st31{fill:#0052CC;}
	.st32{fill:#0049B0;}
	.st33{opacity:0.6;fill:url(#SVGID_23_);enable-background:new    ;}
	.st34{fill:url(#SVGID_24_);}
	.st35{opacity:0.6;fill:url(#SVGID_25_);enable-background:new    ;}
	.st36{fill:#0065FF;}
	.st37{fill:none;}
	.st38{opacity:0.6;fill:url(#SVGID_26_);enable-background:new    ;}
	.st39{font-family:'ArialMT';}
	.st40{font-size:12px;}
</style>
<title>Artboard 37</title>
<g>
	<defs>
		<rect id="SVGID_1_" x="0.2" y="-0.6" width="3587.9" height="854.6"/>
	</defs>
	<clipPath id="SVGID_2_">
		<use xlink:href="#SVGID_1_"  style="overflow:visible;"/>
	</clipPath>
	<g class="st0">
		<g id="BG">
			<rect id="_Rectangle_2" x="1.1" y="1" class="st1" width="3840" height="854"/>
		</g>
		<g id="Layer_3">
			<g class="st2">
				<g>
					<defs>
						<rect id="SVGID_3_" x="0.2" y="-0.6" width="3838.1" height="855.1"/>
					</defs>
					<clipPath id="SVGID_4_">
						<use xlink:href="#SVGID_3_"  style="overflow:visible;"/>
					</clipPath>
					<g class="st3">
						
							<linearGradient id="_Path__1_" gradientUnits="userSpaceOnUse" x1="3269.7095" y1="129.5164" x2="3465.9294" y2="129.5164" gradientTransform="matrix(1 0 0 -1 0 856)">
							<stop  offset="0" style="stop-color:#0065FF"/>
							<stop  offset="1" style="stop-color:#4C9AFF"/>
						</linearGradient>
						<path id="_Path_" class="st4" d="M3396.1,650.4l-74.4,11c-33.3,4.9-56.3,35.9-51.3,69.2c0,0,0,0,0,0l0,0
							c4.9,33.3,35.9,56.3,69.2,51.3c0,0,0,0,0,0l3.5-0.5c16.3-2.5,32.3,6.2,39.1,21.3c0.1,0.1,0.1,0.2,0.2,0.4
							c0,0.1,0.2,0.1,0.2,0.1c0.1,0,0.1-0.1,0.1-0.1c0-0.1,0-0.3,0-0.4c2.1-16.4,14.8-29.4,31.2-31.7h0.1
							c33.3-4.9,56.3-35.9,51.3-69.2c0,0,0,0,0,0l0,0C3460.3,668.5,3429.4,645.5,3396.1,650.4z"/>
						
							<linearGradient id="SVGID_5_" gradientUnits="userSpaceOnUse" x1="239.37" y1="736.695" x2="731.01" y2="736.695" gradientTransform="matrix(1 0 0 -1 0 856)">
							<stop  offset="0" style="stop-color:#0065FF;stop-opacity:0"/>
							<stop  offset="1" style="stop-color:#0052CC"/>
						</linearGradient>
						<polygon class="st5" points="239.4,-65.2 691.6,-65.2 731,303.9 239.4,303.9 						"/>
						
							<linearGradient id="_Clipping_Path__1_" gradientUnits="userSpaceOnUse" x1="560.5369" y1="469.7528" x2="853.5729" y2="762.7886" gradientTransform="matrix(0.9731 0.2304 0.2304 -0.9731 -55.4162 536.3552)">
							<stop  offset="0" style="stop-color:#0052CC"/>
							<stop  offset="0.63" style="stop-color:#0065FF"/>
						</linearGradient>
						<path id="_Clipping_Path_" class="st6" d="M894.5-20.3l-173.3-41C643.7-79.7,566-31.7,547.6,45.8l0,0
							c-18.4,77.5,29.6,155.3,107.2,173.6l8.1,1.9c38,9,66,42.1,67.3,81.1v0.9c0,0.2,0.2,0.4,0.4,0.4c0.2,0,0.3-0.1,0.4-0.2l0.5-0.8
							c18.6-34.3,58.5-51.4,96.5-42.4h0.1c77.5,18.4,155.3-29.6,173.6-107.1c0,0,0,0,0,0l0,0C1019.9,75.8,972-1.9,894.5-20.3z"/>
						<g class="st2">
							<line class="st7" x1="658.5" y1="31" x2="909.1" y2="90.3"/>
							<line class="st7" x1="650.9" y1="63.2" x2="901.5" y2="122.6"/>
							<line class="st7" x1="658.5" y1="31" x2="909.1" y2="90.3"/>
							<line class="st7" x1="643.3" y1="95.4" x2="893.9" y2="154.8"/>
							<line class="st7" x1="635.6" y1="127.6" x2="809.5" y2="168.8"/>
						</g>
						
							<linearGradient id="SVGID_6_" gradientUnits="userSpaceOnUse" x1="2482.96" y1="270.69" x2="3186.72" y2="270.69" gradientTransform="matrix(1 0 0 -1 0 856)">
							<stop  offset="0" style="stop-color:#2684FF;stop-opacity:0"/>
							<stop  offset="0.12" style="stop-color:#2885FF;stop-opacity:3.000000e-02"/>
							<stop  offset="0.32" style="stop-color:#2E88FF;stop-opacity:0.12"/>
							<stop  offset="0.56" style="stop-color:#378EFF;stop-opacity:0.27"/>
							<stop  offset="0.84" style="stop-color:#4495FF;stop-opacity:0.47"/>
							<stop  offset="1" style="stop-color:#4C9AFF;stop-opacity:0.6"/>
						</linearGradient>
						<line class="st8" x1="2491.5" y1="585.3" x2="3178.2" y2="585.3"/>
						
							<linearGradient id="SVGID_7_" gradientUnits="userSpaceOnUse" x1="642.55" y1="375.23" x2="1346.3201" y2="375.23" gradientTransform="matrix(1 0 0 -1 0 856)">
							<stop  offset="0" style="stop-color:#2684FF;stop-opacity:0"/>
							<stop  offset="0.12" style="stop-color:#2684FF;stop-opacity:3.000000e-02"/>
							<stop  offset="0.32" style="stop-color:#2684FF;stop-opacity:0.12"/>
							<stop  offset="0.56" style="stop-color:#2684FF;stop-opacity:0.27"/>
							<stop  offset="0.84" style="stop-color:#2684FF;stop-opacity:0.47"/>
							<stop  offset="1" style="stop-color:#2684FF;stop-opacity:0.6"/>
						</linearGradient>
						<line class="st9" x1="651.1" y1="480.8" x2="1337.8" y2="480.8"/>
						
							<linearGradient id="SVGID_8_" gradientUnits="userSpaceOnUse" x1="2821.48" y1="314.19" x2="3525.24" y2="314.19" gradientTransform="matrix(1 0 0 -1 0 856)">
							<stop  offset="0" style="stop-color:#2684FF;stop-opacity:0"/>
							<stop  offset="0.12" style="stop-color:#2684FF;stop-opacity:3.000000e-02"/>
							<stop  offset="0.32" style="stop-color:#2684FF;stop-opacity:0.12"/>
							<stop  offset="0.56" style="stop-color:#2684FF;stop-opacity:0.27"/>
							<stop  offset="0.84" style="stop-color:#2684FF;stop-opacity:0.47"/>
							<stop  offset="1" style="stop-color:#2684FF;stop-opacity:0.6"/>
						</linearGradient>
						<line class="st10" x1="2830" y1="541.8" x2="3516.7" y2="541.8"/>
						
							<linearGradient id="SVGID_9_" gradientUnits="userSpaceOnUse" x1="3284.4099" y1="173.56" x2="3988.1699" y2="173.56" gradientTransform="matrix(1 0 0 -1 0 856)">
							<stop  offset="0" style="stop-color:#2684FF;stop-opacity:0"/>
							<stop  offset="0.12" style="stop-color:#2684FF;stop-opacity:3.000000e-02"/>
							<stop  offset="0.32" style="stop-color:#2684FF;stop-opacity:0.12"/>
							<stop  offset="0.56" style="stop-color:#2684FF;stop-opacity:0.27"/>
							<stop  offset="0.84" style="stop-color:#2684FF;stop-opacity:0.47"/>
							<stop  offset="1" style="stop-color:#2684FF;stop-opacity:0.6"/>
						</linearGradient>
						<line class="st11" x1="3292.9" y1="682.4" x2="3979.6" y2="682.4"/>
						
							<linearGradient id="SVGID_10_" gradientUnits="userSpaceOnUse" x1="3446.49" y1="131.54" x2="4150.2603" y2="131.54" gradientTransform="matrix(1 0 0 -1 0 856)">
							<stop  offset="0" style="stop-color:#2684FF;stop-opacity:0"/>
							<stop  offset="0.12" style="stop-color:#2684FF;stop-opacity:3.000000e-02"/>
							<stop  offset="0.32" style="stop-color:#2684FF;stop-opacity:0.12"/>
							<stop  offset="0.56" style="stop-color:#2684FF;stop-opacity:0.27"/>
							<stop  offset="0.84" style="stop-color:#2684FF;stop-opacity:0.47"/>
							<stop  offset="1" style="stop-color:#2684FF;stop-opacity:0.6"/>
						</linearGradient>
						<line class="st12" x1="3455" y1="724.5" x2="4141.7" y2="724.5"/>
						
							<linearGradient id="SVGID_11_" gradientUnits="userSpaceOnUse" x1="1166.1899" y1="62.06" x2="1869.9501" y2="62.06" gradientTransform="matrix(1 0 0 -1 0 856)">
							<stop  offset="0" style="stop-color:#2684FF;stop-opacity:0"/>
							<stop  offset="0.12" style="stop-color:#2684FF;stop-opacity:3.000000e-02"/>
							<stop  offset="0.32" style="stop-color:#2684FF;stop-opacity:0.12"/>
							<stop  offset="0.56" style="stop-color:#2684FF;stop-opacity:0.27"/>
							<stop  offset="0.84" style="stop-color:#2684FF;stop-opacity:0.47"/>
							<stop  offset="1" style="stop-color:#2684FF;stop-opacity:0.6"/>
						</linearGradient>
						<line class="st13" x1="1174.7" y1="793.9" x2="1861.4" y2="793.9"/>
						
							<linearGradient id="SVGID_12_" gradientUnits="userSpaceOnUse" x1="-351.63" y1="517.63" x2="352.13" y2="517.63" gradientTransform="matrix(1 0 0 -1 0 856)">
							<stop  offset="0" style="stop-color:#2684FF;stop-opacity:0"/>
							<stop  offset="0.12" style="stop-color:#2684FF;stop-opacity:3.000000e-02"/>
							<stop  offset="0.32" style="stop-color:#2684FF;stop-opacity:0.12"/>
							<stop  offset="0.56" style="stop-color:#2684FF;stop-opacity:0.27"/>
							<stop  offset="0.84" style="stop-color:#2684FF;stop-opacity:0.47"/>
							<stop  offset="1" style="stop-color:#2684FF;stop-opacity:0.6"/>
						</linearGradient>
						<line class="st14" x1="-343.1" y1="338.4" x2="343.6" y2="338.4"/>
						
							<linearGradient id="SVGID_13_" gradientUnits="userSpaceOnUse" x1="-44.17" y1="586.19" x2="659.59" y2="586.19" gradientTransform="matrix(1 0 0 -1 0 856)">
							<stop  offset="0" style="stop-color:#2684FF;stop-opacity:0"/>
							<stop  offset="0.12" style="stop-color:#2684FF;stop-opacity:3.000000e-02"/>
							<stop  offset="0.32" style="stop-color:#2684FF;stop-opacity:0.12"/>
							<stop  offset="0.56" style="stop-color:#2684FF;stop-opacity:0.27"/>
							<stop  offset="0.84" style="stop-color:#2684FF;stop-opacity:0.47"/>
							<stop  offset="1" style="stop-color:#2684FF;stop-opacity:0.6"/>
						</linearGradient>
						<line class="st15" x1="-35.7" y1="269.8" x2="651.1" y2="269.8"/>
						
							<linearGradient id="SVGID_14_" gradientUnits="userSpaceOnUse" x1="-445.01" y1="791.89" x2="258.75" y2="791.89" gradientTransform="matrix(1 0 0 -1 0 856)">
							<stop  offset="0" style="stop-color:#2684FF;stop-opacity:0"/>
							<stop  offset="0.12" style="stop-color:#2684FF;stop-opacity:3.000000e-02"/>
							<stop  offset="0.32" style="stop-color:#2684FF;stop-opacity:0.12"/>
							<stop  offset="0.56" style="stop-color:#2684FF;stop-opacity:0.27"/>
							<stop  offset="0.84" style="stop-color:#2684FF;stop-opacity:0.47"/>
							<stop  offset="1" style="stop-color:#2684FF;stop-opacity:0.6"/>
						</linearGradient>
						<line class="st16" x1="-436.5" y1="64.1" x2="250.2" y2="64.1"/>
						
							<linearGradient id="SVGID_15_" gradientUnits="userSpaceOnUse" x1="1116.15" y1="480.35" x2="1819.91" y2="480.35" gradientTransform="matrix(1 0 0 -1 0 856)">
							<stop  offset="0" style="stop-color:#2684FF;stop-opacity:0"/>
							<stop  offset="0.12" style="stop-color:#2684FF;stop-opacity:3.000000e-02"/>
							<stop  offset="0.32" style="stop-color:#2684FF;stop-opacity:0.12"/>
							<stop  offset="0.56" style="stop-color:#2684FF;stop-opacity:0.27"/>
							<stop  offset="0.84" style="stop-color:#2684FF;stop-opacity:0.47"/>
							<stop  offset="1" style="stop-color:#2684FF;stop-opacity:0.6"/>
						</linearGradient>
						<line class="st17" x1="1124.7" y1="375.6" x2="1811.4" y2="375.6"/>
						
							<linearGradient id="SVGID_16_" gradientUnits="userSpaceOnUse" x1="1295.02" y1="92.78" x2="1998.78" y2="92.78" gradientTransform="matrix(1 0 0 -1 0 856)">
							<stop  offset="0" style="stop-color:#2684FF;stop-opacity:0"/>
							<stop  offset="0.12" style="stop-color:#2684FF;stop-opacity:3.000000e-02"/>
							<stop  offset="0.32" style="stop-color:#2684FF;stop-opacity:0.12"/>
							<stop  offset="0.56" style="stop-color:#2684FF;stop-opacity:0.27"/>
							<stop  offset="0.84" style="stop-color:#2684FF;stop-opacity:0.47"/>
							<stop  offset="1" style="stop-color:#2684FF;stop-opacity:0.6"/>
						</linearGradient>
						<line class="st18" x1="1303.5" y1="763.2" x2="1990.3" y2="763.2"/>
						
							<linearGradient id="SVGID_17_" gradientUnits="userSpaceOnUse" x1="1359.12" y1="212.61" x2="2062.8801" y2="212.61" gradientTransform="matrix(1 0 0 -1 0 856)">
							<stop  offset="0" style="stop-color:#2684FF;stop-opacity:0"/>
							<stop  offset="0.12" style="stop-color:#2684FF;stop-opacity:3.000000e-02"/>
							<stop  offset="0.32" style="stop-color:#2684FF;stop-opacity:0.12"/>
							<stop  offset="0.56" style="stop-color:#2684FF;stop-opacity:0.27"/>
							<stop  offset="0.84" style="stop-color:#2684FF;stop-opacity:0.47"/>
							<stop  offset="1" style="stop-color:#2684FF;stop-opacity:0.6"/>
						</linearGradient>
						<line class="st19" x1="1367.6" y1="643.4" x2="2054.4" y2="643.4"/>
						
							<linearGradient id="SVGID_18_" gradientUnits="userSpaceOnUse" x1="2085.8101" y1="664.58" x2="2673.1799" y2="664.58" gradientTransform="matrix(1 0 0 -1 0 856)">
							<stop  offset="0" style="stop-color:#0065FF;stop-opacity:0"/>
							<stop  offset="1" style="stop-color:#0052CC"/>
						</linearGradient>
						<polygon class="st20" points="2085.8,50.7 2673.2,50.7 2644.4,332.1 2085.8,332.1 						"/>
						
							<linearGradient id="_Path_2_1_" gradientUnits="userSpaceOnUse" x1="2507.5752" y1="532.1178" x2="2732.9163" y2="757.4587" gradientTransform="matrix(0.974 -0.2267 -0.2267 -0.974 199.2275 1398.4562)">
							<stop  offset="0" style="stop-color:#0052CC"/>
							<stop  offset="1" style="stop-color:#0065FF"/>
						</linearGradient>
						<path id="_Path_2" class="st21" d="M2646.7,53l-133.4,31c-59.7,13.9-96.8,73.5-82.9,133.2l0,0c13.9,59.7,73.5,96.8,133.2,82.9
							l6.2-1.5c29.3-6.8,59.9,6.4,74.1,32.9l0.3,0.6c0.1,0.2,0.3,0.2,0.4,0.2c0.1-0.1,0.2-0.2,0.2-0.3c0-0.2,0-0.5,0-0.7
							c1.1-30,22.7-55.4,52-62.2h0.1c59.7-13.9,96.8-73.5,82.9-133.2l0,0C2766,76.2,2706.4,39.1,2646.7,53z"/>
						<line class="st22" x1="2501.7" y1="169.1" x2="2694.6" y2="124.2"/>
						<line class="st22" x1="2507.5" y1="193.9" x2="2700.4" y2="149"/>
						<line class="st22" x1="2501.7" y1="169.1" x2="2694.6" y2="124.2"/>
						<line class="st22" x1="2513.3" y1="218.7" x2="2706.2" y2="173.8"/>
						<line class="st22" x1="2519" y1="243.5" x2="2652.8" y2="212.3"/>
						
							<linearGradient id="SVGID_19_" gradientUnits="userSpaceOnUse" x1="-148.24" y1="104.92" x2="439.12" y2="104.92" gradientTransform="matrix(1 0 0 -1 0 856)">
							<stop  offset="0" style="stop-color:#0065FF;stop-opacity:0"/>
							<stop  offset="1" style="stop-color:#0052CC"/>
						</linearGradient>
						<polygon class="st23" points="-148.2,610.4 439.1,610.4 410.4,891.8 -148.2,891.8 						"/>
						
							<linearGradient id="_Path_3_1_" gradientUnits="userSpaceOnUse" x1="204.8124" y1="493.3775" x2="430.1702" y2="718.7252" gradientTransform="matrix(0.974 -0.2267 -0.2267 -0.974 199.2275 1398.4562)">
							<stop  offset="0" style="stop-color:#0052CC"/>
							<stop  offset="1" style="stop-color:#0065FF"/>
						</linearGradient>
						<path id="_Path_3" class="st24" d="M412.6,612.7l-133.4,31c-59.7,13.9-96.8,73.5-82.9,133.2l0,0
							c13.9,59.7,73.5,96.8,133.2,82.9l6.2-1.5c29.3-6.8,59.9,6.4,74.1,32.8l0.3,0.6c0.1,0.2,0.3,0.2,0.4,0.2
							c0.1-0.1,0.2-0.2,0.2-0.3V891c1.1-30,22.7-55.4,52-62.2h0.1c59.7-13.9,96.8-73.5,82.9-133.2l0,0
							C532,635.9,472.3,598.8,412.6,612.7C412.6,612.7,412.6,612.7,412.6,612.7z"/>
						<line class="st22" x1="267.7" y1="728.8" x2="460.6" y2="683.9"/>
						<line class="st22" x1="273.4" y1="753.5" x2="466.3" y2="708.7"/>
						<line class="st22" x1="267.7" y1="728.8" x2="460.6" y2="683.9"/>
						<line class="st22" x1="279.2" y1="778.3" x2="472.1" y2="733.4"/>
						<line class="st22" x1="285" y1="803.1" x2="418.8" y2="772"/>
						
							<linearGradient id="SVGID_20_" gradientUnits="userSpaceOnUse" x1="953.8" y1="31.76" x2="1657.5601" y2="31.76" gradientTransform="matrix(1 0 0 -1 0 856)">
							<stop  offset="0" style="stop-color:#2684FF;stop-opacity:0"/>
							<stop  offset="0.12" style="stop-color:#2885FF;stop-opacity:3.000000e-02"/>
							<stop  offset="0.32" style="stop-color:#2E88FF;stop-opacity:0.12"/>
							<stop  offset="0.56" style="stop-color:#378EFF;stop-opacity:0.27"/>
							<stop  offset="0.84" style="stop-color:#4495FF;stop-opacity:0.47"/>
							<stop  offset="1" style="stop-color:#4C9AFF;stop-opacity:0.6"/>
						</linearGradient>
						<line class="st25" x1="962.3" y1="824.2" x2="1649" y2="824.2"/>
						<g class="st26">
							
								<linearGradient id="SVGID_21_" gradientUnits="userSpaceOnUse" x1="580.99" y1="178.77" x2="1108.41" y2="178.77" gradientTransform="matrix(1 0 0 -1 0 856)">
								<stop  offset="0" style="stop-color:#0065FF;stop-opacity:0"/>
								<stop  offset="1" style="stop-color:#0052CC"/>
							</linearGradient>
							<polygon class="st27" points="581,552 1108.4,552 1004.5,802.5 581,802.5 							"/>
							
								<linearGradient id="SVGID_22_" gradientUnits="userSpaceOnUse" x1="671.1721" y1="957.9606" x2="872.6522" y2="957.9606" gradientTransform="matrix(0.9239 -0.3827 -0.3827 -0.9239 713.3842 1855.3245)">
								<stop  offset="0" style="stop-color:#0065FF"/>
								<stop  offset="0.45" style="stop-color:#0065FF"/>
								<stop  offset="0.99" style="stop-color:#2684FF"/>
							</linearGradient>
							<path class="st28" d="M934.4,617.9l174-72.1c3.4-1.4,7.2,0.2,8.6,3.6l72.1,174c1.4,3.4-0.2,7.2-3.6,8.6l-174,72.1
								c-3.4,1.4-7.2-0.2-8.6-3.6l-72.1-174C929.4,623.1,931,619.2,934.4,617.9z"/>
							
								<rect x="977.5" y="592.5" transform="matrix(0.9239 -0.3827 0.3827 0.9239 -177.5624 456.9768)" class="st29" width="164.7" height="164.7"/>
							<polygon class="st30" points="1023.4,736 1039.2,697.8 1077.4,713.7 							"/>
							<polygon class="st31" points="1042.7,728 1068.7,665.2 1131.5,691.2 							"/>
							<circle class="st32" cx="1027.2" cy="665.2" r="9.6"/>
						</g>
						<g class="st26">
							
								<linearGradient id="SVGID_23_" gradientUnits="userSpaceOnUse" x1="2756.6201" y1="554.815" x2="3298.75" y2="554.815" gradientTransform="matrix(1 0 0 -1 0 856)">
								<stop  offset="0" style="stop-color:#0065FF;stop-opacity:0"/>
								<stop  offset="1" style="stop-color:#0052CC"/>
							</linearGradient>
							<polygon class="st33" points="2756.6,175.9 3172.4,176.2 3298.8,421.4 2756.6,426.4 							"/>
							
								<linearGradient id="SVGID_24_" gradientUnits="userSpaceOnUse" x1="3062.4336" y1="3709.4934" x2="3263.9136" y2="3709.4934" gradientTransform="matrix(0.9621 0.2726 0.2726 -0.9621 -819.129 3005.6831)">
								<stop  offset="0" style="stop-color:#0065FF"/>
								<stop  offset="0.45" style="stop-color:#0065FF"/>
								<stop  offset="0.99" style="stop-color:#2684FF"/>
							</linearGradient>
							<path class="st34" d="M3172.4,176.4l181.2,51.3c3.5,1,5.5,4.6,4.5,8.1l-51.3,181.2c-1,3.5-4.6,5.5-8.1,4.5l-181.2-51.3
								c-3.5-1-5.5-4.6-4.5-8.1l51.3-181.2C3165.2,177.5,3168.9,175.4,3172.4,176.4z"/>
							
								<rect x="3153.3" y="216.2" transform="matrix(0.2726 -0.9621 0.9621 0.2726 2066.3438 3330.2937)" class="st29" width="164.7" height="164.7"/>
							<polygon class="st30" points="3168.9,324.1 3205.1,304 3225.2,340.1 							"/>
							<polygon class="st31" points="3189.1,329.8 3248.4,296.7 3281.6,356 							"/>
							<circle class="st32" cx="3215.9" cy="271" r="9.6"/>
						</g>
						
							<linearGradient id="SVGID_25_" gradientUnits="userSpaceOnUse" x1="-446.71" y1="532.24" x2="201.4" y2="532.24" gradientTransform="matrix(1 0 0 -1 0 856)">
							<stop  offset="0" style="stop-color:#0065FF;stop-opacity:0"/>
							<stop  offset="1" style="stop-color:#0052CC"/>
						</linearGradient>
						<polygon class="st35" points="-446.7,220 111.9,220 201.4,427.6 -446.7,427.6 						"/>
						<path class="st30" d="M75.7,397.8c-14.3-3.2-23.3-17.4-20.2-31.7l27.9-125.7c3.2-14.3,17.3-23.3,31.6-20.2l125.7,28
							c14.3,3.2,23.4,17.3,20.2,31.6c0,0,0,0,0,0l-28,125.7c-3.2,14.3-17.3,23.3-31.6,20.2L75.7,397.8z"/>
						<path class="st36" d="M111.8,235.4l125.7,28c6,1.3,9.8,7.3,8.5,13.3l-28,125.7c-1.3,6-7.3,9.8-13.3,8.5L79,382.8
							c-6-1.3-9.8-7.3-8.5-13.3l28-125.7C99.8,237.8,105.8,234,111.8,235.4z"/>
						<path class="st30" d="M130.2,355.6l-23.8-39c-1.1-1.8-0.5-4.2,1.3-5.3c0,0,0,0,0,0l9.9-6c1.8-1.1,4.2-0.5,5.3,1.3c0,0,0,0,0,0
							l16,26.2l63.6-36c1.8-1,4.2-0.4,5.2,1.4c0,0,0,0,0,0l5.7,10c1,1.8,0.4,4.2-1.4,5.2c0,0,0,0,0,0L135.3,357
							C133.5,358,131.2,357.4,130.2,355.6z"/>
						<path id="_Path_4" class="st37" d="M75.7,397.8c-14.3-3.2-23.3-17.4-20.2-31.7l27.9-125.7c3.2-14.3,17.3-23.3,31.6-20.2
							l125.7,28c14.3,3.2,23.4,17.3,20.2,31.6c0,0,0,0,0,0l-28,125.7c-3.2,14.3-17.3,23.3-31.6,20.2L75.7,397.8z"/>
						
							<linearGradient id="SVGID_26_" gradientUnits="userSpaceOnUse" x1="2192.52" y1="171.01" x2="2840.6299" y2="171.01" gradientTransform="matrix(1 0 0 -1 0 856)">
							<stop  offset="0" style="stop-color:#0065FF;stop-opacity:0"/>
							<stop  offset="1" style="stop-color:#0052CC"/>
						</linearGradient>
						<polygon class="st38" points="2192.5,581.2 2751.1,581.2 2840.6,788.8 2192.5,788.8 						"/>
						<path class="st30" d="M2714.9,759c-14.3-3.2-23.3-17.4-20.1-31.7l27.9-125.7c3.2-14.3,17.3-23.3,31.6-20.2l125.7,28
							c14.3,3.2,23.3,17.3,20.2,31.6c0,0,0,0,0,0l-27.9,125.7c-3.2,14.3-17.3,23.3-31.6,20.2L2714.9,759z"/>
						<path class="st36" d="M2750.9,596.7l125.7,28c6,1.3,9.8,7.3,8.5,13.3l-28,125.7c-1.3,6-7.3,9.8-13.3,8.5l-125.7-28
							c-6-1.3-9.8-7.3-8.5-13.3l28-125.7C2739,599.2,2744.9,595.4,2750.9,596.7z"/>
						<path class="st30" d="M2769.4,716.8l-23.8-39c-1.1-1.8-0.5-4.2,1.3-5.3l9.9-6c1.8-1.1,4.2-0.5,5.3,1.3l16,26.2l63.6-36
							c1.8-1,4.2-0.4,5.2,1.4c0,0,0,0,0,0l5.7,10c1,1.8,0.4,4.2-1.4,5.2c0,0,0,0,0,0l-76.6,43.4
							C2772.8,719.2,2770.5,718.6,2769.4,716.8z"/>
						<path id="_Path_5" class="st37" d="M2714.9,759c-14.3-3.2-23.3-17.4-20.1-31.7l27.9-125.7c3.2-14.3,17.3-23.3,31.6-20.2
							l125.7,28c14.3,3.2,23.3,17.3,20.2,31.6c0,0,0,0,0,0l-27.9,125.7c-3.2,14.3-17.3,23.3-31.6,20.2L2714.9,759z"/>
					</g>
				</g>
			</g>
			<text transform="matrix(1 0 0 1 3525.6201 3.13)" class="st39 st40">L</text>
			<text transform="matrix(1 0 0 1 3531.1201 3.13)" class="st39 st40">o</text>
			<text transform="matrix(1 0 0 1 3537.7002 3.13)" class="st39 st40">r</text>
			<text transform="matrix(1 0 0 1 3541.51 3.13)" class="st39 st40">em ipsum</text>
		</g>
	</g>
</g>
</svg>
