<svg xmlns="http://www.w3.org/2000/svg" xmlns:xlink="http://www.w3.org/1999/xlink" width="180" height="180" version="1.1" viewBox="0 0 180 180"><title>chips_180px</title><desc>Created with Sketch.</desc><defs><rect id="path-1" width="180" height="180" x="0" y="0"/><rect id="path-3" width="138" height="32" x="0" y="0" rx="16"/><path id="path-5" d="M13,11.87 L11.87,13 L9,10.13 L6.13,13 L5,11.87 L7.87,9 L5,6.13 L6.13,5 L9,7.87 L11.87,5 L13,6.13 L10.13,9 L13,11.87 Z M9,1 C4.58,1 1,4.58 1,9 C1,13.42 4.58,17 9,17 C13.42,17 17,13.42 17,9 C17,4.58 13.42,1 9,1 L9,1 Z"/><rect id="path-7" width="145" height="32" x="0" y="0" rx="16"/><rect id="path-9" width="145" height="32" x="0" y="0" rx="16"/><rect id="path-11" width="145" height="32" x="0" y="0" rx="16"/><rect id="path-13" width="145" height="32" x="0" y="0" rx="16"/><rect id="path-15" width="145" height="32" x="0" y="0" rx="16"/><rect id="path-17" width="145" height="32" x="0" y="0" rx="16"/><rect id="path-19" width="145" height="32" x="0" y="0" rx="16"/><rect id="path-21" width="145" height="32" x="0" y="0" rx="16"/><rect id="path-23" width="145" height="32" x="0" y="0" rx="16"/></defs><g id="chips_180px" fill="none" fill-rule="evenodd" stroke="none" stroke-width="1"><g id="Group"><mask id="mask-2" fill="#fff"><use xlink:href="#path-1"/></mask><use id="Mask" fill="#FAFAFA" xlink:href="#path-1"/><g id="Group-6" mask="url(#mask-2)"><g transform="translate(-215.000000, -14.000000)"><g id="Chips-/-Input-/-Text-only-/-Enabled" fill-rule="evenodd" stroke-width="1" transform="translate(237.000000, 88.000000)"><mask id="mask-4" fill="#fff"><use xlink:href="#path-3"/></mask><use id="Surface" fill="#FAFAFA" xlink:href="#path-3"/><g id="✱-/-Color-/-Icons-/-Black-/-Active" fill="#000" mask="url(#mask-4)" opacity=".87"><rect id="Rectangle-13" width="138" height="32" x="0" y="0"/></g><text id="Body-2" fill="#FFF" fill-opacity=".87" font-family="Roboto-Regular, Roboto" font-size="14" font-weight="normal" letter-spacing=".25" line-spacing="20" mask="url(#mask-4)"><tspan x="12" y="19">Enabled Entity</tspan></text><g id="Icon-/-Cancel-/-Fill" mask="url(#mask-4)"><g transform="translate(112.000000, 7.000000)"><mask id="mask-6" fill="#fff"><use xlink:href="#path-5"/></mask><g id="✱-/-Color-/-Icons-/-White-/-100%" fill="none" fill-rule="evenodd" stroke="none" mask="url(#mask-6)"><rect id="Rectangle-13" width="18" height="18" x="0" y="0" fill="#FFF"/></g></g></g></g><g id="Chips-/-Action-/-with-Image-/-Enabled" transform="translate(157.000000, 132.000000)"><mask id="mask-8" fill="#fff"><use xlink:href="#path-7"/></mask><g id="✱-/-Color-/-Icons-/-Black-/-Disabled" fill="#000" fill-rule="evenodd" mask="url(#mask-8)" opacity=".12"><rect id="Rectangle" width="145" height="32" x="0" y="0" opacity=".38"/></g></g><g id="Chips-/-Action-/-with-Image-/-Enabled" transform="translate(237.000000, 0.000000)"><mask id="mask-10" fill="#fff"><use xlink:href="#path-9"/></mask><g id="✱-/-Color-/-Icons-/-Black-/-Disabled" fill="#000" fill-rule="evenodd" mask="url(#mask-10)" opacity=".12"><rect id="Rectangle" width="145" height="32" x="0" y="0" opacity=".38"/></g></g><g id="Chips-/-Action-/-with-Image-/-Enabled" transform="translate(237.000000, 176.000000)"><mask id="mask-12" fill="#fff"><use xlink:href="#path-11"/></mask><g id="✱-/-Color-/-Icons-/-Black-/-Disabled" fill="#000" fill-rule="evenodd" mask="url(#mask-12)" opacity=".12"><rect id="Rectangle" width="145" height="32" x="0" y="0" opacity=".38"/></g></g><g id="Chips-/-Action-/-with-Image-/-Enabled" transform="translate(80.000000, 176.000000)"><mask id="mask-14" fill="#fff"><use xlink:href="#path-13"/></mask><g id="✱-/-Color-/-Icons-/-Black-/-Disabled" fill="#000" fill-rule="evenodd" mask="url(#mask-14)" opacity=".12"><rect id="Rectangle" width="145" height="32" x="0" y="0" opacity=".38"/></g></g><g id="Chips-/-Action-/-with-Image-/-Enabled" transform="translate(80.000000, 88.000000)"><mask id="mask-16" fill="#fff"><use xlink:href="#path-15"/></mask><g id="✱-/-Color-/-Icons-/-Black-/-Disabled" fill="#000" fill-rule="evenodd" mask="url(#mask-16)" opacity=".12"><rect id="Rectangle" width="145" height="32" x="0" y="0" opacity=".38"/></g></g><g id="Chips-/-Action-/-with-Image-/-Enabled" transform="translate(387.000000, 88.000000)"><mask id="mask-18" fill="#fff"><use xlink:href="#path-17"/></mask><g id="✱-/-Color-/-Icons-/-Black-/-Disabled" fill="#000" fill-rule="evenodd" mask="url(#mask-18)" opacity=".12"><rect id="Rectangle" width="145" height="32" x="0" y="0" opacity=".38"/></g></g><g id="Chips-/-Action-/-with-Image-/-Enabled" transform="translate(157.000000, 44.000000)"><mask id="mask-20" fill="#fff"><use xlink:href="#path-19"/></mask><g id="✱-/-Color-/-Icons-/-Black-/-Disabled" fill="#000" fill-rule="evenodd" mask="url(#mask-20)" opacity=".12"><rect id="Rectangle" width="145" height="32" x="0" y="0" opacity=".38"/></g></g><g id="Chips-/-Action-/-with-Image-/-Enabled" transform="translate(316.000000, 132.000000)"><mask id="mask-22" fill="#fff"><use xlink:href="#path-21"/></mask><g id="✱-/-Color-/-Icons-/-Black-/-Disabled" fill="#000" fill-rule="evenodd" mask="url(#mask-22)" opacity=".12"><rect id="Rectangle" width="145" height="32" x="0" y="0" opacity=".38"/></g></g><g id="Chips-/-Action-/-with-Image-/-Enabled" transform="translate(316.000000, 44.000000)"><mask id="mask-24" fill="#fff"><use xlink:href="#path-23"/></mask><g id="✱-/-Color-/-Icons-/-Black-/-Disabled" fill="#000" fill-rule="evenodd" mask="url(#mask-24)" opacity=".12"><rect id="Rectangle" width="145" height="32" x="0" y="0" opacity=".38"/></g></g></g></g></g></g></svg>