<svg xmlns="http://www.w3.org/2000/svg" xmlns:xlink="http://www.w3.org/1999/xlink" width="180" height="180" version="1.1" viewBox="0 0 180 180"><title>Group</title><desc>Created with Sketch.</desc><g id="Page-1" fill="none" fill-rule="evenodd" stroke="none" stroke-width="1"><g id="Group"><rect id="Rectangle" width="180" height="180" x="0" y="0" fill="#D1D1D1"/><g id="ic_data_table_black_24dp" transform="translate(49.000000, 46.000000)"><rect id="Rectangle" width="81" height="81" x="0" y="0"/><path id="Shape" fill="#000" fill-rule="nonzero" d="M6,7 L6,75 L74,75 L74,7 L6,7 Z M67.2,68.2 L12.8,68.2 L12.8,54.6 L67.2,54.6 L67.2,68.2 Z M67.2,47.8 L12.8,47.8 L12.8,34.2 L67.2,34.2 L67.2,47.8 Z M67.2,27.4 L12.8,27.4 L12.8,13.8 L67.2,13.8 L67.2,27.4 Z M16.2,17.2 L23,17.2 L23,24 L16.2,24 L16.2,17.2 Z M16.2,58 L23,58 L23,64.8 L16.2,64.8 L16.2,58 Z M16.2,37.6 L23,37.6 L23,44.4 L16.2,44.4 L16.2,37.6 Z"/></g></g></g></svg>