<svg xmlns="http://www.w3.org/2000/svg" xmlns:xlink="http://www.w3.org/1999/xlink" width="180" height="180" version="1.1" viewBox="0 0 180 180" style="background:#fafafa"><title>floating_action_button_180px</title><desc>Created with Sketch.</desc><defs><rect id="path-1" width="180" height="180" x="0" y="0"/><rect id="path-3" width="56" height="56" x="0" y="0" rx="28"/><filter id="filter-5" width="187.5%" height="187.5%" x="-43.8%" y="-31.2%" filterUnits="objectBoundingBox"><feOffset dx="0" dy="1" in="SourceAlpha" result="shadowOffsetOuter1"/><feGaussianBlur in="shadowOffsetOuter1" result="shadowBlurOuter1" stdDeviation="5"/><feColorMatrix in="shadowBlurOuter1" result="shadowMatrixOuter1" type="matrix" values="0 0 0 0 0 0 0 0 0 0 0 0 0 0 0 0 0 0 0.2 0"/><feOffset dx="0" dy="4" in="SourceAlpha" result="shadowOffsetOuter2"/><feGaussianBlur in="shadowOffsetOuter2" result="shadowBlurOuter2" stdDeviation="2.5"/><feColorMatrix in="shadowBlurOuter2" result="shadowMatrixOuter2" type="matrix" values="0 0 0 0 0 0 0 0 0 0 0 0 0 0 0 0 0 0 0.12 0"/><feOffset dx="0" dy="2" in="SourceAlpha" result="shadowOffsetOuter3"/><feGaussianBlur in="shadowOffsetOuter3" result="shadowBlurOuter3" stdDeviation="2"/><feColorMatrix in="shadowBlurOuter3" result="shadowMatrixOuter3" type="matrix" values="0 0 0 0 0 0 0 0 0 0 0 0 0 0 0 0 0 0 0.14 0"/><feMerge><feMergeNode in="shadowMatrixOuter1"/><feMergeNode in="shadowMatrixOuter2"/><feMergeNode in="shadowMatrixOuter3"/></feMerge></filter><polygon id="path-6" points="11 5 11 11 5 11 5 13 11 13 11 19 13 19 13 13 19 13 19 11 13 11 13 5"/><path id="path-8" d="M24,0 L114,0 C127.254834,-2.4348735e-15 138,10.745166 138,24 L138,24 C138,37.254834 127.254834,48 114,48 L24,48 C10.745166,48 1.623249e-15,37.254834 0,24 L0,24 C-1.623249e-15,10.745166 10.745166,2.4348735e-15 24,0 Z"/><filter id="filter-10" width="113%" height="137.5%" x="-6.5%" y="-12.5%" filterUnits="objectBoundingBox"><feOffset dx="0" dy="1" in="SourceAlpha" result="shadowOffsetOuter1"/><feGaussianBlur in="shadowOffsetOuter1" result="shadowBlurOuter1" stdDeviation="1.5"/><feColorMatrix in="shadowBlurOuter1" result="shadowMatrixOuter1" type="matrix" values="0 0 0 0 0 0 0 0 0 0 0 0 0 0 0 0 0 0 0.2 0"/><feOffset dx="0" dy="2" in="SourceAlpha" result="shadowOffsetOuter2"/><feGaussianBlur in="shadowOffsetOuter2" result="shadowBlurOuter2" stdDeviation="1"/><feColorMatrix in="shadowBlurOuter2" result="shadowMatrixOuter2" type="matrix" values="0 0 0 0 0 0 0 0 0 0 0 0 0 0 0 0 0 0 0.12 0"/><feOffset dx="0" dy="0" in="SourceAlpha" result="shadowOffsetOuter3"/><feGaussianBlur in="shadowOffsetOuter3" result="shadowBlurOuter3" stdDeviation="1"/><feColorMatrix in="shadowBlurOuter3" result="shadowMatrixOuter3" type="matrix" values="0 0 0 0 0 0 0 0 0 0 0 0 0 0 0 0 0 0 0.14 0"/><feMerge><feMergeNode in="shadowMatrixOuter1"/><feMergeNode in="shadowMatrixOuter2"/><feMergeNode in="shadowMatrixOuter3"/></feMerge></filter><polygon id="path-11" points="11 5 11 11 5 11 5 13 11 13 11 19 13 19 13 13 19 13 19 11 13 11 13 5"/></defs><g id="floating_action_button_180px" fill="none" fill-rule="evenodd" stroke="none" stroke-width="1"><mask id="mask-2" fill="#fff"><use xlink:href="#path-1"/></mask><g id="FAB-/-Standard-/-Circular-/-Enabled" mask="url(#mask-2)"><g transform="translate(60.000000, 62.000000)"><mask id="mask-4" fill="#fff"><use xlink:href="#path-3"/></mask><g id="Surface" fill="none" stroke="none"><use fill="#000" fill-opacity="1" filter="url(#filter-5)" xlink:href="#path-3"/><use fill="#FAFAFA" fill-rule="evenodd" xlink:href="#path-3"/></g><g id="✱-/-Color-/-Secondary-/-Main" fill="none" fill-rule="evenodd" stroke="none" mask="url(#mask-4)"><g id="✱-/-Color-/-Primary-/-Main" fill="#212121"><g id="✱-/-Color-/-Primary-/-500"><rect id="Rectangle-13" width="56" height="56" x="0" y="0"/></g></g></g><g id="Icon-/-Add-/-Fill" fill="none" stroke="none" mask="url(#mask-4)"><g transform="translate(16.000000, 16.000000)"><mask id="mask-7" fill="#fff"><use xlink:href="#path-6"/></mask><g id="✱-/-Color-/-Icons-/-White-/-Active" fill="none" fill-rule="evenodd" stroke="none" mask="url(#mask-7)"><rect id="Rectangle-13" width="24" height="24" x="0" y="0" fill="#FFF"/></g></g></g></g></g></g></svg>